<svg width="103" height="64" viewBox="0 0 103 64" fill="none" xmlns="http://www.w3.org/2000/svg">
<path d="M28.65 19.1274C26.7154 27.1743 18.8356 32.0525 11.0767 30.0512C3.31781 28.0499 -1.41809 19.8987 0.516613 11.8726C2.45131 3.82573 10.3311 -1.05248 18.0899 0.948829C25.8689 2.92933 30.5847 11.0804 28.65 19.1274Z" fill="#F7931A"/>
<path d="M20.9718 13.3525C21.2539 11.3512 19.7828 10.288 17.7876 9.55842L18.4325 6.84822L16.8404 6.43132L16.2157 9.05802C15.7925 8.95382 15.3693 8.84962 14.9461 8.74532L15.5909 6.09783L13.9989 5.68083L13.354 8.39092C13.0114 8.30752 12.6688 8.22412 12.3463 8.14082L10.1497 7.57792L9.72641 9.32902C9.72641 9.32902 10.9155 9.60012 10.8752 9.62092C11.5201 9.78772 11.641 10.2255 11.6208 10.5799L10.8752 13.6652C10.9155 13.6861 10.9759 13.6861 11.0364 13.7278C10.9759 13.7069 10.9356 13.7069 10.8752 13.6861L9.8272 18.0014C9.7466 18.2099 9.5451 18.5017 9.1017 18.3975C9.1219 18.4183 7.95301 18.1056 7.95301 18.1056L7.16701 19.9819L9.2428 20.5239C9.6257 20.6281 10.0086 20.7323 10.3713 20.8366L9.70631 23.5675L11.2984 23.9845L11.9433 21.2744C12.3866 21.3994 12.7897 21.5037 13.2129 21.6079L12.568 24.2972L14.1601 24.7141L14.8251 21.9832C17.5458 22.5043 19.5812 22.2959 20.4478 19.7525C21.133 17.7095 20.4075 16.5213 18.9766 15.7499C19.9843 15.5206 20.7702 14.8118 20.9718 13.3525ZM17.3443 18.6268C16.8606 20.6698 13.5152 19.5649 12.4471 19.2939L13.3137 15.6665C14.4019 15.9375 17.8481 16.5004 17.3443 18.6268ZM17.8279 13.3317C17.3846 15.187 14.6035 14.2489 13.7167 14.0196L14.5027 10.7258C15.4096 10.9551 18.3116 11.3929 17.8279 13.3317Z" fill="white"/>
<path d="M48.5003 30.4808V22.9634L39.1895 17.5256L48.5003 30.4808Z" fill="#F0CDC2"/>
<path d="M48.5003 30.4808V22.9634L57.8099 17.5256L48.5003 30.4808Z" fill="#C9B3F5"/>
<path d="M48.5003 21.0961V11.5016L39.0839 15.7133L48.5003 21.0961Z" fill="#88AAF1"/>
<path d="M48.5003 21.0961V11.5016L57.9167 15.7133L48.5003 21.0961Z" fill="#C9B3F5"/>
<path d="M39.0839 15.7133L48.5003 0.51923V11.5016L39.0839 15.7133Z" fill="#F0CDC2"/>
<path d="M57.9167 15.7133L48.5003 0.51923V11.5016L57.9167 15.7133Z" fill="#B8FAF6"/>
<path fill-rule="evenodd" clip-rule="evenodd" d="M74.3254 0.647329L67.9436 13.8556C67.9193 13.9047 67.9117 13.9602 67.9217 14.0139C67.9317 14.0677 67.9589 14.1169 67.9993 14.1543L85.2347 30.4279C85.2837 30.4741 85.3489 30.4999 85.4167 30.4999C85.4846 30.4999 85.5498 30.4741 85.5987 30.4279L102.834 14.1553C102.875 14.1179 102.902 14.0687 102.912 14.0149C102.922 13.9612 102.914 13.9057 102.89 13.8566L96.5078 0.648329C96.4878 0.604029 96.4548 0.566429 96.4128 0.540129C96.3708 0.513829 96.3228 0.49989 96.2728 0.50002H74.5625C74.5128 0.49941 74.4639 0.513029 74.4218 0.539129C74.3798 0.565229 74.3463 0.602829 74.3254 0.647329Z" fill="#50AF95"/>
<path fill-rule="evenodd" clip-rule="evenodd" d="M87.6308 15.212C87.5068 15.2211 86.8678 15.2587 85.4418 15.2587C84.3075 15.2587 83.5023 15.2252 83.2197 15.212C78.8363 15.022 75.5646 14.2701 75.5646 13.3699C75.5646 12.4697 78.8363 11.7189 83.2197 11.5258V14.4632C83.5063 14.4835 84.3271 14.5312 85.4614 14.5312C86.8228 14.5312 87.5038 14.4753 87.6268 14.4642V11.5279C92.0008 11.7199 95.2658 12.4718 95.2658 13.3699C95.2658 14.2681 92.0018 15.0199 87.6268 15.2109L87.6308 15.212ZM87.6308 11.2241V8.59562H93.7348V4.58743H77.1154V8.59562H83.2187V11.2231C78.2579 11.4476 74.5273 12.4159 74.5273 13.5762C74.5273 14.7365 78.2579 15.7037 83.2187 15.9293V24.3521H87.6298V15.9262C92.5798 15.7017 96.3038 14.7344 96.3038 13.5752C96.3038 12.4159 92.5828 11.4486 87.6298 11.2231L87.6308 11.2241Z" fill="white"/>
<path d="M14.8704 46.652C15.6544 46.652 16.3184 46.676 16.8624 46.724C17.4224 46.756 17.9344 46.812 18.3984 46.892C18.8624 46.972 19.3424 47.084 19.8384 47.228L19.5504 49.916C19.0224 49.884 18.5344 49.86 18.0864 49.844C17.6544 49.828 17.1824 49.82 16.6704 49.82C16.1744 49.804 15.5744 49.796 14.8704 49.796C14.0544 49.796 13.4144 49.956 12.9504 50.276C12.5024 50.596 12.1824 51.156 11.9904 51.956C11.7984 52.74 11.7024 53.828 11.7024 55.22C11.7024 56.612 11.7984 57.708 11.9904 58.508C12.1824 59.292 12.5024 59.844 12.9504 60.164C13.4144 60.484 14.0544 60.644 14.8704 60.644C15.9744 60.644 16.9024 60.628 17.6544 60.596C18.4064 60.564 19.1504 60.508 19.8864 60.428L20.1984 63.116C19.4304 63.356 18.6464 63.524 17.8464 63.62C17.0464 63.732 16.0544 63.788 14.8704 63.788C13.1584 63.788 11.7824 63.516 10.7424 62.972C9.71838 62.412 8.97438 61.508 8.51038 60.26C8.06238 59.012 7.83838 57.332 7.83838 55.22C7.83838 53.108 8.06238 51.428 8.51038 50.18C8.97438 48.932 9.71838 48.036 10.7424 47.492C11.7824 46.932 13.1584 46.652 14.8704 46.652ZM28.8838 46.7C30.3398 46.7 31.5158 46.852 32.4118 47.156C33.3238 47.444 33.9878 47.948 34.4037 48.668C34.8358 49.372 35.0518 50.356 35.0518 51.62C35.0518 52.388 34.9478 53.068 34.7398 53.66C34.5478 54.236 34.2198 54.7 33.7558 55.052C33.2918 55.404 32.6598 55.628 31.8598 55.724V55.844C32.1478 55.892 32.4438 56.004 32.7478 56.18C33.0678 56.356 33.3638 56.62 33.6358 56.972C33.9078 57.308 34.1078 57.764 34.2358 58.34L35.6758 63.5H31.8118L30.5398 58.46C30.3958 57.916 30.1798 57.54 29.8918 57.332C29.6198 57.124 29.2358 57.02 28.7398 57.02C27.6518 57.02 26.7318 57.02 25.9798 57.02C25.2438 57.004 24.6198 56.988 24.1078 56.972C23.6118 56.956 23.1638 56.94 22.7638 56.924L22.8358 54.26H28.8118C29.4518 54.26 29.9558 54.196 30.3238 54.068C30.7078 53.924 30.9718 53.676 31.1158 53.324C31.2758 52.972 31.3558 52.484 31.3558 51.86C31.3558 51.22 31.2758 50.732 31.1158 50.396C30.9718 50.044 30.7078 49.804 30.3238 49.676C29.9558 49.532 29.4518 49.46 28.8118 49.46C27.3078 49.46 26.0358 49.468 24.9958 49.484C23.9558 49.5 23.2438 49.524 22.8598 49.556L22.4998 46.94C23.1718 46.86 23.8038 46.804 24.3958 46.772C24.9878 46.74 25.6358 46.724 26.3398 46.724C27.0438 46.708 27.8918 46.7 28.8838 46.7ZM26.1238 46.94V63.5H22.4998V46.94H26.1238ZM50.6484 46.94L45.0564 58.244H41.6004L35.9844 46.94H39.8004L42.5844 53.036C42.7284 53.356 42.8484 53.7 42.9444 54.068C43.0404 54.436 43.1284 54.788 43.2084 55.124H43.4484C43.5444 54.788 43.6404 54.436 43.7364 54.068C43.8324 53.7 43.9444 53.356 44.0724 53.036L46.8324 46.94H50.6484ZM45.1524 56.012V63.5H41.4804V56.012H45.1524ZM58.6957 46.7C60.2477 46.7 61.4637 46.86 62.3437 47.18C63.2237 47.5 63.8477 48.052 64.2157 48.836C64.5997 49.62 64.7917 50.716 64.7917 52.124C64.7917 53.532 64.6077 54.628 64.2397 55.412C63.8877 56.196 63.3037 56.748 62.4877 57.068C61.6717 57.372 60.5677 57.524 59.1757 57.524C58.4397 57.524 57.7197 57.492 57.0157 57.428C56.3117 57.364 55.6557 57.284 55.0477 57.188C54.4397 57.092 53.9197 56.996 53.4877 56.9C53.0557 56.788 52.7597 56.684 52.5997 56.588L52.6717 54.764C53.6157 54.764 54.5917 54.764 55.5997 54.764C56.6237 54.764 57.6317 54.764 58.6237 54.764C59.2637 54.748 59.7597 54.668 60.1117 54.524C60.4797 54.38 60.7357 54.116 60.8797 53.732C61.0397 53.348 61.1197 52.812 61.1197 52.124C61.1197 51.42 61.0397 50.876 60.8797 50.492C60.7357 50.108 60.4797 49.844 60.1117 49.7C59.7597 49.54 59.2637 49.46 58.6237 49.46C57.1517 49.46 55.8877 49.468 54.8317 49.484C53.7757 49.5 53.0637 49.532 52.6957 49.58L52.3357 46.94C53.0077 46.86 53.6397 46.804 54.2317 46.772C54.8237 46.74 55.4637 46.724 56.1517 46.724C56.8557 46.708 57.7037 46.7 58.6957 46.7ZM56.0077 46.94V63.5H52.3357V46.94H56.0077ZM74.5636 46.94V63.5H70.8916V46.94H74.5636ZM79.5556 46.94V49.82H65.9236V46.94H79.5556ZM87.9982 46.604C89.3102 46.604 90.4222 46.748 91.3342 47.036C92.2462 47.308 92.9742 47.772 93.5182 48.428C94.0782 49.068 94.4862 49.948 94.7422 51.068C94.9982 52.172 95.1262 53.556 95.1262 55.22C95.1262 56.884 94.9982 58.276 94.7422 59.396C94.4862 60.5 94.0782 61.38 93.5182 62.036C92.9742 62.676 92.2462 63.14 91.3342 63.428C90.4222 63.7 89.3102 63.836 87.9982 63.836C86.6862 63.836 85.5742 63.7 84.6622 63.428C83.7502 63.14 83.0142 62.676 82.4542 62.036C81.8942 61.38 81.4862 60.5 81.2302 59.396C80.9742 58.276 80.8462 56.884 80.8462 55.22C80.8462 53.556 80.9742 52.172 81.2302 51.068C81.4862 49.948 81.8942 49.068 82.4542 48.428C83.0142 47.772 83.7502 47.308 84.6622 47.036C85.5742 46.748 86.6862 46.604 87.9982 46.604ZM87.9982 49.508C87.1502 49.508 86.4862 49.676 86.0062 50.012C85.5422 50.348 85.2062 50.932 84.9982 51.764C84.8062 52.58 84.7102 53.732 84.7102 55.22C84.7102 56.692 84.8062 57.844 84.9982 58.676C85.2062 59.508 85.5422 60.092 86.0062 60.428C86.4862 60.764 87.1502 60.932 87.9982 60.932C88.8302 60.932 89.4782 60.764 89.9422 60.428C90.4222 60.092 90.7582 59.508 90.9502 58.676C91.1582 57.844 91.2622 56.692 91.2622 55.22C91.2622 53.732 91.1582 52.58 90.9502 51.764C90.7582 50.932 90.4222 50.348 89.9422 50.012C89.4782 49.676 88.8302 49.508 87.9982 49.508Z" fill="white"/>
</svg>
