<svg width="115" height="60" viewBox="0 0 115 60" fill="none" xmlns="http://www.w3.org/2000/svg">
<g clip-path="url(#clip0_2926_15791)">
<path d="M105.045 60H9.95465C4.72235 60 0.481354 55.759 0.481354 50.5267V9.47329C0.481354 4.24099 4.72235 0 9.95465 0H105.049C110.278 0 114.519 4.24099 114.519 9.47329V50.5304C114.519 55.759 110.278 60 105.045 60Z" fill="url(#paint0_linear_2926_15791)"/>
<path d="M55.1708 8.97388H47.4379V52.2969H55.1708V8.97388Z" fill="white"/>
<path d="M69.5187 23.6012H61.7857V52.2969H69.5187V23.6012Z" fill="white"/>
<path d="M104.177 52.2969L92.5571 37.1105L103.245 23.6012H94.1149L83.8665 36.708V8.97388H76.1335V52.2969H83.8665V37.5652L94.1149 52.2969H104.177Z" fill="white"/>
<path d="M27.731 23.277C25.2192 23.277 22.8565 23.9105 20.7919 25.0211V8.97388H13.059V37.949C13.059 46.0546 19.6292 52.6248 27.7348 52.6248C35.8404 52.6248 42.4105 46.0546 42.4105 37.949C42.4105 29.8434 35.8366 23.277 27.731 23.277ZM27.731 44.8919C23.8963 44.8919 20.7919 41.7838 20.7919 37.9528C20.7919 34.1217 23.9 31.0136 27.731 31.0136C31.5621 31.0136 34.6702 34.1217 34.6702 37.9528C34.6702 41.7838 31.5658 44.8919 27.731 44.8919Z" fill="white"/>
<path d="M35.2813 20.6199C39.089 20.6199 42.1758 17.5331 42.1758 13.7255C42.1758 9.91779 39.089 6.83105 35.2813 6.83105C31.4737 6.83105 28.3869 9.91779 28.3869 13.7255C28.3869 17.5331 31.4737 20.6199 35.2813 20.6199Z" fill="url(#paint1_radial_2926_15791)"/>
</g>
<defs>
<linearGradient id="paint0_linear_2926_15791" x1="57.5" y1="60" x2="57.5" y2="0" gradientUnits="userSpaceOnUse">
<stop stop-color="#262626"/>
<stop offset="1"/>
</linearGradient>
<radialGradient id="paint1_radial_2926_15791" cx="0" cy="0" r="1" gradientUnits="userSpaceOnUse" gradientTransform="translate(29.6739 6.45961) scale(22.6035 22.6035)">
<stop stop-color="#FF0000"/>
<stop offset="0.495" stop-color="#E83E49"/>
<stop offset="1" stop-color="#FF00FF"/>
</radialGradient>
<clipPath id="clip0_2926_15791">
<rect width="114.037" height="60" fill="white" transform="translate(0.481354)"/>
</clipPath>
</defs>
</svg>
