<svg width="135" height="36" viewBox="0 0 135 36" fill="none" xmlns="http://www.w3.org/2000/svg">
<path d="M129.215 7.95989L126.039 27.8666C126.027 27.9397 126.032 28.0145 126.052 28.0858C126.072 28.157 126.107 28.223 126.156 28.2792C126.204 28.3353 126.264 28.3802 126.332 28.4107C126.4 28.4412 126.473 28.4565 126.548 28.4557H130.306C130.439 28.4568 130.568 28.4106 130.669 28.3252C130.77 28.2399 130.838 28.1212 130.859 27.9906L134.035 8.08387C134.047 8.01077 134.043 7.93597 134.023 7.86469C134.002 7.79341 133.967 7.7274 133.919 7.67127C133.87 7.61513 133.81 7.57025 133.742 7.53975C133.675 7.50926 133.601 7.49389 133.527 7.49474H129.768C129.635 7.49211 129.506 7.53787 129.404 7.62346C129.302 7.70905 129.235 7.82864 129.215 7.95989ZM125.202 13.7691H121.635C121.503 13.7678 121.374 13.814 121.273 13.8992C121.172 13.9844 121.104 14.103 121.083 14.2335L120.965 14.9664C120.965 14.9664 118.195 11.9701 113.291 13.995C110.477 15.1543 109.127 17.5496 108.552 19.3043C108.552 19.3043 106.728 24.6374 110.854 27.5728C110.854 27.5728 114.679 30.3961 118.986 27.3991L118.912 27.8666C118.895 27.9764 118.914 28.0888 118.967 28.1867C119.02 28.2845 119.103 28.3624 119.205 28.4083C119.272 28.4399 119.346 28.4557 119.42 28.4557H122.989C123.122 28.4583 123.251 28.4126 123.353 28.327C123.455 28.2414 123.522 28.1218 123.542 27.9906L125.712 14.3583C125.724 14.2853 125.72 14.2105 125.7 14.1393C125.679 14.0681 125.643 14.0024 125.594 13.9468C125.546 13.8902 125.486 13.8449 125.418 13.814C125.35 13.7832 125.276 13.7684 125.202 13.7691ZM119.954 21.3031C119.815 22.2556 119.332 23.1247 118.596 23.7473C117.857 24.3723 116.917 24.7097 115.948 24.6974C115.568 24.7018 115.19 24.6469 114.827 24.5347C113.287 24.0451 112.408 22.5809 112.661 20.9936C112.801 20.0416 113.284 19.1732 114.02 18.5509C114.759 17.9257 115.698 17.5872 116.667 17.5977C117.047 17.5938 117.425 17.6492 117.788 17.762C119.337 18.2485 120.212 19.715 119.958 21.3039H119.954V21.3031ZM100.909 21.6798C102.843 21.6798 104.714 20.9944 106.183 19.7482C107.65 18.5062 108.621 16.7806 108.919 14.885C109.544 10.9419 106.434 7.50026 102.024 7.50026H94.9204C94.7879 7.499 94.6592 7.54526 94.5579 7.63062C94.4567 7.71599 94.3895 7.8348 94.3686 7.96541L91.1917 27.8721C91.1744 27.9819 91.1938 28.0944 91.2467 28.1922C91.2996 28.29 91.3831 28.3679 91.4846 28.4139C91.5527 28.4454 91.6255 28.4612 91.6999 28.4612H95.4611C95.5937 28.4625 95.7224 28.4162 95.8236 28.3309C95.9249 28.2455 95.9921 28.1267 96.0129 27.9961L96.9455 22.1505C96.9651 22.0191 97.032 21.8994 97.1337 21.8136C97.2354 21.7278 97.365 21.682 97.4981 21.6846L100.909 21.6798ZM104.055 14.7057C103.824 16.1636 102.685 17.2368 100.507 17.2368H97.7229L98.5684 11.9354H101.303C103.554 11.9393 104.287 13.2542 104.055 14.7097V14.7057Z" fill="white"/>
<path d="M86.9072 14.1068L82.6052 21.2973L80.4218 14.1597C80.3877 14.0458 80.3173 13.9461 80.2213 13.8756C80.1254 13.8051 80.009 13.7676 79.8898 13.7688H76.0075C75.9071 13.7675 75.8095 13.8024 75.7328 13.8671C75.6562 13.9318 75.6055 14.022 75.5903 14.1211C75.5808 14.1867 75.5876 14.2537 75.6101 14.3161L79.5225 26.3389L75.9837 32.0044C75.9537 32.0511 75.9335 32.1034 75.9244 32.158C75.9153 32.2127 75.9175 32.2687 75.9309 32.3225C75.9442 32.3763 75.9684 32.4269 76.002 32.471C76.0356 32.5152 76.0779 32.5521 76.1262 32.5794C76.191 32.6165 76.2645 32.6356 76.3392 32.6346H80.5208C80.6401 32.6351 80.7575 32.6047 80.8617 32.5466C80.9658 32.4885 81.0532 32.4046 81.1153 32.303L92.0435 14.4022C92.0831 14.3399 92.1049 14.2679 92.1064 14.1941C92.1079 14.1203 92.0892 14.0476 92.0522 13.9836C92.0153 13.9195 91.9618 13.8664 91.8974 13.8299C91.8329 13.7934 91.7598 13.7747 91.6857 13.7759H87.5057C87.3857 13.7748 87.2676 13.8047 87.1627 13.8627C87.0578 13.9207 86.9698 14.0048 86.9072 14.1068ZM73.8066 13.7688H70.237C70.1042 13.7676 69.9754 13.8139 69.874 13.8994C69.7726 13.9849 69.7053 14.1039 69.6844 14.2348L69.5689 14.9669C69.5689 14.9669 66.7964 11.9706 61.8921 13.9955C59.0793 15.1548 57.7279 17.5501 57.1555 19.3048C57.1555 19.3048 55.3299 24.6379 59.4545 27.5733C59.4545 27.5733 63.2806 30.3966 67.5881 27.3995L67.5137 27.8671C67.4962 27.9769 67.5154 28.0895 67.5683 28.1874C67.6212 28.2852 67.705 28.3631 67.8066 28.4088C67.8739 28.4404 67.9475 28.4562 68.0219 28.4562H71.5908C71.7233 28.4571 71.8517 28.4108 71.9529 28.3255C72.0541 28.2401 72.1214 28.1215 72.1426 27.991L74.3141 14.3588C74.3318 14.2488 74.3127 14.1361 74.2598 14.038C74.2068 13.9399 74.123 13.862 74.0212 13.8162C73.9537 13.7852 73.881 13.769 73.8066 13.7688ZM68.5579 21.3044C68.4174 22.2557 67.9345 23.1235 67.1994 23.7455C66.4609 24.3703 65.5212 24.7085 64.5529 24.6979C64.1735 24.7021 63.7958 24.6472 63.4334 24.5352C61.8944 24.0456 61.0165 22.5814 61.269 20.9933C61.4097 20.0392 61.8947 19.1692 62.6331 18.5467C63.3742 17.9215 64.317 17.5846 65.2875 17.5982C65.6675 17.5943 66.0467 17.6496 66.4093 17.7625C67.9428 18.249 68.816 19.7147 68.5626 21.3044H68.5579ZM49.5143 21.6803C51.4451 21.6793 53.3127 20.9939 54.7837 19.7463C56.2486 18.5043 57.2183 16.7793 57.5165 14.8847C58.1419 10.9424 55.0307 7.50076 50.6227 7.50076H43.5182C43.3857 7.49944 43.257 7.54556 43.1557 7.63076C43.0543 7.71595 42.9869 7.83458 42.9657 7.96512L39.799 27.8663C39.7813 27.9762 39.8004 28.089 39.8533 28.187C39.9063 28.2851 39.9901 28.363 40.0919 28.4088C40.1592 28.4396 40.2328 28.4562 40.3072 28.4562H44.0661C44.1989 28.4575 44.3277 28.4111 44.4291 28.3256C44.5305 28.2401 44.5978 28.1211 44.6187 27.9903L45.5497 22.1447C45.5694 22.0134 45.6364 21.8939 45.7381 21.8083C45.8398 21.7227 45.9692 21.6769 46.1023 21.6795L49.5143 21.6803ZM52.6604 14.7055C52.4285 16.1633 51.2908 17.2365 49.113 17.2365H46.3287L47.1726 11.9351H49.907C52.1593 11.939 52.8916 13.2547 52.6604 14.7094V14.7055Z" fill="white"/>
<path d="M25.2142 8.52351C25.2989 4.12788 21.6644 0.755737 16.6666 0.755737H6.329C6.0881 0.755624 5.85507 0.841328 5.6719 0.997409C5.48873 1.15349 5.36745 1.36969 5.32991 1.60706L1.18791 27.4257C1.16938 27.5427 1.17649 27.6623 1.20874 27.7763C1.241 27.8903 1.29763 27.9959 1.37475 28.086C1.45188 28.1761 1.54765 28.2484 1.65548 28.298C1.7633 28.3476 1.88063 28.3733 1.99937 28.3733H8.1237L7.16658 34.3516C7.14805 34.4686 7.15515 34.5882 7.18741 34.7022C7.21966 34.8162 7.2763 34.9218 7.35342 35.0119C7.43054 35.102 7.52632 35.1743 7.63414 35.2239C7.74197 35.2735 7.8593 35.2992 7.97804 35.2992H12.9671C13.2078 35.2992 13.4223 35.2132 13.606 35.0576C13.7881 34.9012 13.8182 34.6856 13.8562 34.4479L15.3207 25.8525C15.358 25.6156 15.4791 25.3076 15.662 25.1512C15.8448 24.9949 16.0047 24.9096 16.2462 24.9096H19.2989C24.1938 24.9096 28.346 21.4387 29.1053 16.6119C29.6428 13.1861 28.1703 10.069 25.2142 8.52351Z" fill="#E8E8E9"/>
<path d="M9.44928 18.8518L7.92373 28.5007L6.96582 34.5532C6.9474 34.6702 6.95462 34.7898 6.98698 34.9037C7.01934 35.0177 7.07607 35.1233 7.15326 35.2133C7.23046 35.3033 7.32628 35.3755 7.43414 35.425C7.542 35.4745 7.65934 35.5001 7.77807 35.5001H13.0585C13.2992 35.5 13.5319 35.4141 13.7148 35.2581C13.8976 35.102 14.0186 34.8859 14.056 34.6487L15.4477 25.852C15.4853 25.6147 15.6064 25.3986 15.7894 25.2426C15.9724 25.0865 16.2053 25.0007 16.446 25.0006H19.5541C24.449 25.0006 28.6013 21.439 29.3613 16.6121C29.8996 13.1863 28.1706 10.0684 25.2145 8.52295C25.2066 8.8878 25.1749 9.25187 25.1187 9.61277C24.3595 14.438 20.2057 18.0005 15.3124 18.0005H10.4476C10.2067 18.0007 9.97389 18.0867 9.7909 18.2429C9.60791 18.3991 9.48678 18.6145 9.44928 18.8518Z" fill="#B3B4B7"/>
<path d="M7.92249 28.5006H1.77915C1.66044 28.5006 1.54314 28.4749 1.43534 28.4253C1.32754 28.3757 1.23181 28.3033 1.15475 28.2133C1.07769 28.1232 1.02113 28.0175 0.988973 27.9035C0.956816 27.7895 0.949827 27.6699 0.968488 27.5529L5.11049 1.35133C5.14801 1.11409 5.26917 0.897993 5.45218 0.741928C5.63519 0.585863 5.86802 0.500075 6.10878 0.5H16.6665C21.6643 0.5 25.2988 4.12801 25.2141 8.52285C23.9704 7.87211 22.509 7.50015 20.9082 7.50015H12.1065C11.8656 7.50004 11.6325 7.58574 11.4494 7.74182C11.2662 7.8979 11.1449 8.1141 11.1074 8.35148L9.44962 18.8517L7.9217 28.5006H7.92249Z" fill="white"/>
</svg>
