<svg width="64" height="18" viewBox="0 0 64 18" fill="none" xmlns="http://www.w3.org/2000/svg">
    <path d="M25.61 9.09757C25.61 8.71526 25.3025 8.4156 24.9095 8.4156C24.6093 8.4156 24.4406 8.58539 24.3338 8.72595L21.9876 11.3442H20.6141V9.10601C20.6141 8.71864 20.3105 8.41504 19.9232 8.41504C19.5358 8.41504 19.2227 8.71864 19.2227 9.10601V14.5573C19.2227 14.9446 19.5302 15.2488 19.9232 15.2488C20.3162 15.2488 20.6141 14.9452 20.6141 14.5573V12.5873H21.7307C21.7476 12.5873 22.1558 12.5839 22.1726 12.5822L24.2708 14.9952C24.4339 15.1707 24.6081 15.2482 24.8353 15.2482C25.2019 15.2482 25.4891 14.961 25.4891 14.5944C25.4891 14.3954 25.4116 14.2306 25.2536 14.0845L23.3077 11.889L25.4262 9.58108C25.515 9.46583 25.61 9.32358 25.61 9.09701V9.09757Z" fill="white"/>
    <path d="M27.8451 8.41553C27.4521 8.41553 27.1445 8.71913 27.1445 9.10649V14.5578C27.1445 14.9451 27.4521 15.2493 27.8451 15.2493C28.238 15.2493 28.536 14.9457 28.536 14.5578V9.10649C28.536 8.71913 28.2324 8.41553 27.8451 8.41553Z" fill="white"/>
    <path d="M43.5798 11.3009H42.6026C42.2524 11.3009 41.9673 11.582 41.9673 11.9272C41.9673 12.2724 42.2524 12.5439 42.6026 12.5439H42.9259V13.5683C42.5324 13.8421 42.0112 13.9984 41.485 13.9984C40.2599 13.9984 39.4042 13.154 39.4042 11.8445C39.4042 10.651 40.2919 9.68 41.3832 9.68C41.9791 9.68 42.4143 9.82055 42.8871 10.1674C42.9951 10.2428 43.1294 10.3198 43.311 10.3198C43.6922 10.3198 44.002 10.01 44.002 9.62884C44.002 9.31062 43.8047 9.12846 43.7181 9.06325C43.0535 8.58536 42.3688 8.38184 41.4293 8.38184C39.4823 8.38184 37.957 9.91107 37.957 11.8816C37.957 13.8522 39.425 15.2876 41.4478 15.2876C42.5138 15.2876 43.3296 14.8929 43.8227 14.564C44.1308 14.3728 44.2803 14.1013 44.2803 13.7342V12.0008C44.2803 11.6078 43.9728 11.3003 43.5798 11.3003V11.3009Z" fill="white"/>
    <path d="M51.1368 8.41553C50.7438 8.41553 50.4363 8.71913 50.4363 9.10649V12.2757C50.4363 13.3546 49.9016 13.9489 48.9301 13.9489C47.9586 13.9489 47.4149 13.3383 47.4149 12.2296V9.10649C47.4149 8.71913 47.1113 8.41553 46.724 8.41553C46.3366 8.41553 46.0234 8.71913 46.0234 9.10649V12.2757C46.0234 14.1698 47.0759 15.2566 48.9116 15.2566C50.7472 15.2566 51.8278 14.1502 51.8278 12.2201V9.10649C51.8278 8.71913 51.5242 8.41553 51.1368 8.41553Z" fill="white"/>
    <path d="M58.1246 15.2556C58.5176 15.2556 58.8251 14.952 58.8251 14.5647V11.396C58.8251 10.3171 59.3598 9.72283 60.3313 9.72283C61.3028 9.72283 61.8464 10.3334 61.8464 11.4421V14.5641C61.8464 14.9515 62.15 15.2551 62.5374 15.2551C62.9248 15.2551 63.2379 14.9515 63.2379 14.5641V11.3954C63.2379 9.50132 62.1855 8.41455 60.3498 8.41455C58.5142 8.41455 57.4336 9.521 57.4336 11.4511V14.5641C57.4336 14.9515 57.7372 15.2551 58.1246 15.2551V15.2556Z" fill="white"/>
    <path d="M31.316 15.2432C31.709 15.2432 32.0165 14.9396 32.0165 14.5522V11.3965C32.0165 10.3176 32.5512 9.72332 33.5227 9.72332C34.4942 9.72332 35.0379 10.3339 35.0379 11.4426V14.5646C35.0379 14.952 35.3415 15.2556 35.7288 15.2556C36.1162 15.2556 36.4293 14.952 36.4293 14.5646V11.3959C36.4293 9.50181 35.3769 8.41504 33.5412 8.41504C31.7056 8.41504 30.625 9.52149 30.625 11.4516V14.5517C30.625 14.939 30.9286 15.2426 31.316 15.2426V15.2432Z" fill="white"/>
    <path d="M54.6771 8.41553C54.2841 8.41553 53.9766 8.71913 53.9766 9.10649V14.5578C53.9766 14.9451 54.2841 15.2493 54.6771 15.2493C55.0701 15.2493 55.3681 14.9457 55.3681 14.5578V9.10649C55.3681 8.71913 55.0645 8.41553 54.6771 8.41553Z" fill="white"/>
    <path d="M1.61131 8.3999C1.85868 8.07269 2.24886 7.42558 2.89373 5.63772C2.89373 5.63772 3.35081 4.461 4.25374 3.54346C2.63904 4.85961 2.22188 6.7481 1.04853 8.40103C-0.746076 10.9288 0.00336149 13.9378 1.49661 15.5806C-0.305297 12.9297 0.407597 9.99154 1.61131 8.3999Z" fill="white"/>
    <path d="M12.0448 8.3999C11.7974 8.07269 11.4072 7.42558 10.7624 5.63772C10.7624 5.63772 10.3053 4.461 9.40234 3.54346C11.017 4.85961 11.4342 6.7481 12.6076 8.40103C14.4022 10.9288 13.6527 13.9378 12.1595 15.5806C13.9614 12.9297 13.2485 9.99154 12.0448 8.3999Z" fill="white"/>
    <path d="M10.1409 9.09903C9.85979 8.66725 9.7822 8.05443 9.88003 7.54843C10.3922 4.90713 8.74041 4.70079 8.74041 4.70079C7.47542 4.58554 7.19375 5.84041 7.13078 6.406L7.86729 7.14251C7.96286 7.23809 7.96286 7.39269 7.86729 7.48827L7.00034 8.35521C6.95256 8.403 6.89015 8.42662 6.82774 8.42662C6.76534 8.42662 6.70293 8.403 6.65514 8.35521L5.7882 7.48827C5.69262 7.39269 5.69262 7.23809 5.7882 7.14251L6.52471 6.406C6.46174 5.84041 6.18007 4.5861 4.91507 4.70079C4.91507 4.70079 3.26384 4.90713 3.77546 7.54843C3.87328 8.05386 3.79513 8.66725 3.51459 9.09903C2.97767 9.92437 1.48779 12.7793 2.18719 15.3166C2.20743 15.3908 2.22879 15.4605 2.24229 15.5027C2.25634 15.5466 2.27377 15.582 2.28726 15.6129C2.32156 15.6916 2.35923 15.7686 2.39858 15.8428C3.23348 17.4019 5.22317 18.0001 6.81875 18.0001H6.83449C8.43007 18.0001 10.4198 17.4019 11.2547 15.8428C11.2979 15.7619 11.3379 15.6787 11.375 15.5927C11.3857 15.5679 11.3997 15.5392 11.4205 15.4735C11.4334 15.4319 11.4503 15.3756 11.4666 15.3166C12.166 12.7793 10.6761 9.92437 10.1392 9.09903H10.1409ZM5.60379 6.41443C5.48179 6.44761 5.31144 6.50214 5.13715 6.58366C4.96286 6.66518 4.81219 6.7602 4.70818 6.83216C4.62385 6.89063 4.5069 6.82429 4.49004 6.71241C4.44394 6.40263 4.58224 6.09959 4.85267 5.97309C5.12759 5.84491 5.45424 5.93936 5.6617 6.18224C5.73142 6.26376 5.69768 6.38913 5.60435 6.415L5.60379 6.41443ZM9.16601 6.71129C9.14914 6.82373 9.0322 6.89007 8.94787 6.83104C8.84386 6.75907 8.69319 6.6635 8.5189 6.58254C8.34405 6.50102 8.17426 6.44648 8.05226 6.41331C7.95893 6.38801 7.92519 6.26207 7.99491 6.18055C8.20237 5.93767 8.52902 5.84322 8.80394 5.97141C9.07437 6.09734 9.21211 6.40094 9.16657 6.71072H9.16601V6.71129Z" fill="white"/>
    <path d="M12.0466 8.40027C11.7992 8.07306 11.409 7.42594 10.7642 5.63809C10.7642 5.63809 10.2812 4.39446 9.32714 3.4668V3.47017C9.32714 3.47017 8.4512 3.8626 6.8292 3.8626C5.2072 3.8626 4.33126 3.47017 4.33126 3.47017V3.4668C3.37718 4.3939 2.89423 5.63809 2.89423 5.63809C2.2488 7.42594 1.85919 8.07306 1.61181 8.40027C0.311959 10.1184 -0.415553 13.4063 1.97556 16.2072C2.34269 16.6373 2.53441 16.2663 2.34269 15.7771C1.30484 13.1353 2.94708 9.97504 3.51717 9.09911C3.79828 8.66732 3.87586 8.0545 3.77804 7.54851C3.26586 4.9072 4.91766 4.70087 4.91766 4.70087C6.18265 4.58561 6.46432 5.84048 6.52729 6.40608L6.65716 6.2762C6.75274 6.18063 6.90735 6.18063 7.00293 6.2762L7.1328 6.40608C7.19577 5.84048 7.47744 4.58617 8.74243 4.70087C8.74243 4.70087 10.3937 4.9072 9.88205 7.54851C9.78422 8.05394 9.86181 8.66732 10.1429 9.09911C10.7124 9.97504 12.3552 13.1353 11.3168 15.7771C11.1246 16.2657 11.3168 16.6368 11.684 16.2072C14.0751 13.4063 13.347 10.1184 12.0477 8.40027H12.0466Z" fill="black"/>
    <path d="M8.05307 2.06447L6.82968 0L5.60629 2.06447L4.07031 0.71964L4.33174 3.47001C4.33174 3.47001 5.20712 3.86244 6.82968 3.86244C8.45168 3.86244 9.32762 3.47001 9.32762 3.47001L9.58905 0.71964L8.05307 2.06447Z" fill="#FFC20D"/>
    <path d="M6.65678 6.27633L5.79012 7.14298C5.69461 7.23849 5.69461 7.39334 5.79012 7.48885L6.65678 8.35551C6.75229 8.45102 6.90714 8.45102 7.00264 8.35551L7.8693 7.48885C7.96481 7.39334 7.96481 7.23849 7.8693 7.14298L7.00264 6.27633C6.90714 6.18082 6.75229 6.18082 6.65678 6.27633Z" fill="#F26621"/>
    <path d="M4.85129 5.97279C5.12621 5.84461 5.45286 5.93906 5.66032 6.18194C5.73003 6.26346 5.6963 6.38883 5.60297 6.4147C5.48097 6.44787 5.31062 6.5024 5.13633 6.58392C4.96204 6.66545 4.81137 6.76046 4.70736 6.83243C4.62303 6.8909 4.50608 6.82455 4.48922 6.71211C4.44312 6.40233 4.58142 6.09929 4.85185 5.97279H4.85129Z" fill="black"/>
    <path d="M8.80319 5.97279C8.52826 5.84461 8.20161 5.93906 7.99416 6.18194C7.92444 6.26346 7.95817 6.38883 8.0515 6.4147C8.1735 6.44787 8.34386 6.5024 8.51814 6.58392C8.69243 6.66545 8.84311 6.76046 8.94712 6.83243C9.03145 6.8909 9.14839 6.82455 9.16526 6.71211C9.21136 6.40233 9.07305 6.09929 8.80263 5.97279H8.80319Z" fill="black"/>
</svg>