<svg width="149" height="26" viewBox="0 0 149 26" fill="none" xmlns="http://www.w3.org/2000/svg">
<path d="M27.309 11.6662C27.2924 11.1545 27.0512 10.8903 26.5828 10.873H24.0808C23.4886 10.9093 23.1827 11.2341 23.1685 11.8452V16.3453C23.1827 16.9761 23.521 17.2978 24.1786 17.316H26.4716C26.7097 17.316 26.9076 17.2276 27.0653 17.0471C27.2301 16.9114 27.309 16.7372 27.309 16.5211V11.6662ZM19.9561 11.0275C19.9726 9.90153 20.2234 9.04599 20.7099 8.46091C20.9646 8.21568 21.2831 8.01066 21.6711 7.84113C22.074 7.66056 22.4643 7.57304 22.8428 7.57304H27.4352C29.4609 7.59038 30.4907 8.69825 30.523 10.899V17.6724C30.508 18.4538 30.2021 19.1319 29.6107 19.6989C29.0248 20.295 28.3254 20.5985 27.5109 20.6167H23.1685V25.5H19.9561V11.0275Z" fill="#008AC9"/>
<path d="M36.3207 16.6623C36.3207 16.8507 36.4074 16.9998 36.577 17.1117C36.7284 17.2458 36.9192 17.316 37.1605 17.316H39.6278C40.1852 17.316 40.4746 17.0999 40.4912 16.6623V15.7413C40.4912 15.2382 40.1971 14.9843 39.6041 14.9843H37.1605C36.8388 14.9843 36.6164 15.0379 36.4926 15.1389C36.3783 15.2579 36.3207 15.4937 36.3207 15.843V16.6623ZM40.4912 11.5866C40.5077 11.093 40.2199 10.8572 39.627 10.873H33.1572V7.57304H40.4415C42.5634 7.60773 43.6405 8.6328 43.6768 10.6569V17.5604C43.6587 18.4333 43.3913 19.1532 42.8725 19.7257C42.33 20.3186 41.6306 20.6167 40.7735 20.6167H36.3704C34.2272 20.5986 33.1406 19.62 33.1075 17.6747V15.0111C33.1241 12.9783 34.1625 11.9454 36.2182 11.9099H40.4912V11.5866Z" fill="#008AC9"/>
<path d="M52.6995 22.1992C52.9542 22.1835 53.175 22.092 53.354 21.928C53.5259 21.775 53.6126 21.5992 53.6126 21.3997V20.6167H49.4997C48.9635 20.6167 48.5345 20.5481 48.2144 20.4117C47.8761 20.2879 47.5394 20.0568 47.2004 19.7288C46.8794 19.3811 46.6484 19.0176 46.508 18.6375C46.3622 18.2898 46.288 17.8474 46.288 17.316V7.57304H49.4997V16.2704C49.4997 16.9674 49.7843 17.316 50.3607 17.316H52.6285C52.8982 17.316 53.1324 17.2276 53.3287 17.0471C53.518 16.8941 53.6126 16.7127 53.6126 16.4998V7.57304H56.7982V21.9461C56.7801 23.0098 56.5072 23.8614 55.9813 24.5072C55.4475 25.153 54.7173 25.4834 53.7861 25.5H46.288V22.1992H52.6995Z" fill="#008AC9"/>
<path d="M59.3209 17.316H65.0448C65.5684 17.2978 65.8404 17.0881 65.857 16.6859V16.3894C65.857 16.3035 65.8309 16.2081 65.7805 16.1056C65.6527 15.8564 65.4958 15.7326 65.3089 15.7326H62.4711C61.6289 15.7161 60.9106 15.4259 60.3066 14.866C59.6955 14.3488 59.3824 13.7124 59.3643 12.9657V10.5047C59.3974 8.5847 60.4406 7.60773 62.4955 7.57304H69.134V10.873H63.5095C62.8496 10.873 62.5168 11.0756 62.5168 11.4794V11.7987C62.5168 12.2174 62.8566 12.4271 63.534 12.4271H66.3632C67.117 12.4445 67.7597 12.7331 68.2951 13.2961C68.836 13.863 69.1167 14.5372 69.134 15.3202V17.7276C69.1167 18.4041 68.8036 19.0791 68.202 19.7525C67.9087 20.0829 67.6083 20.31 67.3078 20.4385C66.9972 20.5568 66.5753 20.6167 66.0367 20.6167H59.3209V17.316Z" fill="#008AC9"/>
<path d="M74.6296 16.6623C74.6296 16.8507 74.7163 16.9998 74.8898 17.1117C75.0396 17.2458 75.2312 17.316 75.4693 17.316H77.9413C78.4988 17.316 78.7866 17.0999 78.8032 16.6623V15.7413C78.8032 15.2382 78.5051 14.9843 77.9145 14.9843H75.4693C75.1484 14.9843 74.9268 15.0379 74.8038 15.1389C74.6895 15.2579 74.6296 15.4937 74.6296 15.843V16.6623ZM78.8032 11.5866C78.8174 11.093 78.5296 10.8572 77.9358 10.873H71.4676V7.57304H78.7543C80.8738 7.60773 81.9517 8.6328 81.9849 10.6569V17.5604C81.9675 18.4333 81.6978 19.1532 81.1821 19.7257C80.6436 20.3186 79.9434 20.6167 79.0855 20.6167H74.6785C72.5368 20.5986 71.4495 19.62 71.4195 17.6747V15.0111C71.4337 12.9783 72.4714 11.9454 74.5286 11.9099H78.8032V11.5866Z" fill="#008AC9"/>
<path d="M84.5965 5.70188C84.6162 4.81086 84.9443 4.09567 85.5877 3.55948C86.2122 3.01461 87.0323 2.73469 88.0463 2.71892H90.0862V5.9069H88.8506C88.1717 5.92267 87.8255 6.24753 87.8105 6.8752V7.57382H90.0862V10.8769H87.8105V20.6183H84.5965V5.70188Z" fill="#008AC9"/>
<path d="M99.2222 11.5251V11.4486C99.2222 11.2791 99.1536 11.1348 99.0156 11.0275C98.8658 10.9234 98.6829 10.873 98.4629 10.873H96.2266C95.9396 10.873 95.7086 10.9534 95.5296 11.1182C95.3072 11.2704 95.1945 11.4707 95.1945 11.7175V13.0422L99.2222 11.5251ZM95.2457 16.19V16.3958C95.2457 16.6599 95.3143 16.8697 95.4539 17.0218C95.5548 17.2166 95.6904 17.316 95.871 17.316H102.47V20.6167H95.4539C94.8136 20.6167 94.3145 20.5568 93.962 20.4369C93.5764 20.31 93.2303 20.1026 92.9283 19.814C92.575 19.4647 92.3345 19.109 92.2139 18.7432C92.0814 18.3615 92.016 17.8553 92.016 17.2245L91.9884 10.6191C92.0238 8.62334 93.0663 7.60773 95.1148 7.57304H99.4454C101.446 7.60773 102.459 8.65882 102.491 10.7318V13.341L95.2457 16.19Z" fill="#008AC9"/>
<path d="M109.291 20.6164C108.804 20.6164 108.36 20.5715 107.957 20.4895C107.535 20.4209 107.115 20.2253 106.685 19.8949C106.245 19.5109 105.939 19.0804 105.772 18.6049C105.596 18.1373 105.511 17.6074 105.511 17.0113V10.8522C105.492 10.3499 105.543 9.90912 105.66 9.52669C105.768 9.14505 105.995 8.77129 106.338 8.40542C106.73 8.02141 107.129 7.76593 107.55 7.64056C107.955 7.53884 108.411 7.48759 108.923 7.48759H113.847V8.25954H109.038C108.188 8.25954 107.521 8.43381 107.033 8.78312C106.534 9.16397 106.279 9.82081 106.279 10.7465V16.9096C106.279 17.3433 106.346 17.7651 106.477 18.172C106.612 18.5718 106.837 18.9227 107.159 19.2294C107.509 19.4951 107.858 19.6607 108.198 19.7285C108.552 19.8066 108.932 19.8437 109.335 19.8437H113.924V20.6164H109.291Z" fill="#008AC9"/>
<path d="M126.51 12.6256H120.055C119.282 12.6429 118.677 12.8818 118.241 13.3423C117.789 13.8099 117.566 14.451 117.566 15.2655V17.2313C117.566 17.6122 117.606 17.9607 117.688 18.2745C117.769 18.6049 117.972 18.8998 118.292 19.1529C118.849 19.615 119.467 19.8437 120.142 19.8437H124.053C125.687 19.8263 126.51 18.9652 126.51 17.2557V12.6256ZM127.277 17.0633C127.277 17.5593 127.239 17.9946 127.175 18.3778C127.071 18.7941 126.857 19.1955 126.533 19.5771C125.859 20.2876 125.023 20.6338 124.026 20.6164H120.188C119.191 20.6164 118.382 20.3183 117.756 19.7254C117.117 19.1395 116.793 18.325 116.793 17.2802V15.2947C116.825 13.0545 117.941 11.9072 120.139 11.8552H126.533V10.9862C126.533 10.2703 126.326 9.64339 125.914 9.10405C125.652 8.75394 125.342 8.51976 124.99 8.39911C124.635 8.30607 124.236 8.25955 123.791 8.25955H116.816V7.48759H123.428C124.033 7.48759 124.579 7.53017 125.075 7.61375C125.329 7.66421 125.56 7.76357 125.774 7.90708C126 8.04349 126.212 8.24299 126.407 8.50478C127 9.26964 127.29 10.152 127.277 11.1455V17.0633Z" fill="#008AC9"/>
<path d="M134.497 8.25954C132.708 8.29266 131.825 9.26963 131.858 11.192V20.6164H131.089V11.1952C131.053 8.7224 132.23 7.48759 134.621 7.48759H135.476V8.25954H134.497Z" fill="#008AC9"/>
<path d="M147.5 8.26377H141.415C140.977 8.26377 140.584 8.31266 140.23 8.4057C139.86 8.48929 139.502 8.71402 139.167 9.07989C138.846 9.41343 138.644 9.74382 138.559 10.0742C138.447 10.4078 138.395 10.8075 138.414 11.2735V17.282C138.414 18.2811 138.703 18.9608 139.29 19.3259C139.579 19.4954 139.897 19.6224 140.253 19.7075C140.608 19.8021 141.004 19.8487 141.44 19.8487H144.1C145.094 19.8487 145.907 19.62 146.531 19.1587C147.159 18.7258 147.478 17.9791 147.5 16.9146V8.26377ZM148.268 16.9674C148.2 19.4544 146.884 20.6735 144.32 20.6222H141.468C140.866 20.6222 140.327 20.5694 139.851 20.4692C139.361 20.3423 138.891 20.0434 138.44 19.5774C138.1 19.1587 137.881 18.7353 137.794 18.3016C137.676 17.8687 137.625 17.3869 137.643 16.861V11.2538C137.676 8.72821 138.948 7.47289 141.462 7.49181H147.5V3.23461H148.268V16.9674Z" fill="#008AC9"/>
<path d="M2.11167 7.07702C2.36399 6.96584 2.61632 6.87911 2.86865 6.8247C3.33229 4.61054 5.29334 2.94992 7.64391 2.94992C9.99606 2.94992 11.9579 4.61291 12.4208 6.82627C13.1422 6.96348 13.7392 7.25523 14.2044 7.6897C14.2233 7.26469 14.206 6.85545 14.1555 6.46986C13.8582 3.12497 11.0535 0.5 7.63366 0.5C4.11293 0.5 1.24666 3.29056 1.09763 6.77896C1.07713 7.08018 1.07083 7.39401 1.08187 7.72203C1.37756 7.47286 1.71505 7.24892 2.11167 7.07702Z" fill="#E3001B"/>
<path d="M11.4656 7.57304H3.6199C3.2422 7.57304 2.85109 7.66056 2.44816 7.84113C2.05942 8.01066 1.74086 8.21568 1.48538 8.46091C0.998865 9.04599 0.749693 9.90153 0.732346 11.0275V17.1606C0.749693 18.289 0.998865 19.1437 1.48538 19.7257C1.74086 19.9748 2.05942 20.1799 2.44816 20.351C2.85109 20.5276 3.2422 20.6167 3.6199 20.6167H11.4656C13.4921 20.5986 14.5227 19.4867 14.5551 17.2891V10.899C14.5227 8.69825 13.4921 7.59038 11.4656 7.57304Z" fill="#E3001B"/>
</svg>
