<svg width="125" height="45" viewBox="0 0 125 45" fill="none" xmlns="http://www.w3.org/2000/svg">
<path d="M4.1674 41.9984C1.86984 41.9984 0.00115967 40.1282 0.00115967 37.8322V6.16624C0.00115967 3.86868 1.86984 2 4.1674 2H20.8332C23.1299 2 25.0002 3.86868 25.0002 6.16624V21.1657C25.0002 21.6258 24.6268 21.9992 24.1666 21.9992C23.7065 21.9992 23.3331 21.6258 23.3331 21.1657V10.3333H1.6675V33.6659H12.5007C12.9608 33.6659 13.3342 34.0394 13.3342 34.4995C13.3342 34.9596 12.9608 35.3331 12.5007 35.3331H1.6675V37.833C1.6675 39.2118 2.78855 40.3329 4.1674 40.3329H12.5007C12.9608 40.3329 13.3342 40.7055 13.3342 41.1664C13.3342 41.6274 12.9608 42 12.5007 42H4.1674V41.9984ZM23.3338 8.66615V6.16624C23.3338 4.78739 22.2128 3.66634 20.8339 3.66634H4.1674C2.78855 3.66634 1.6675 4.78739 1.6675 6.16624V8.66615H23.3338Z" fill="white"/>
<path d="M9.16681 7.00013C8.70667 7.00013 8.33325 6.62671 8.33325 6.16657C8.33325 5.70643 8.70667 5.33301 9.16681 5.33301H15.833C16.2931 5.33301 16.6665 5.70643 16.6665 6.16657C16.6665 6.62671 16.2931 7.00013 15.8337 7.00013H9.16681Z" fill="white"/>
<path d="M19.1666 33.6654C18.7064 33.6654 18.333 33.292 18.333 32.8319C18.333 32.3717 18.7064 31.9983 19.1666 31.9983H25.8327C26.2929 31.9983 26.6663 32.3717 26.6663 32.8319C26.6663 33.292 26.2929 33.6654 25.8327 33.6654H19.1666Z" fill="white"/>
<path d="M32.5004 33.6654C32.0402 33.6654 31.6668 33.292 31.6668 32.8319C31.6668 32.3717 32.0402 31.9983 32.5004 31.9983H35.8338C36.294 31.9983 36.6674 32.3717 36.6674 32.8319C36.6674 33.292 36.294 33.6654 35.8338 33.6654H32.5004Z" fill="white"/>
<path d="M19.1666 36.9984C18.7064 36.9984 18.333 36.625 18.333 36.1649C18.333 35.7047 18.7064 35.3313 19.1666 35.3313H22.5C22.9602 35.3313 23.3336 35.7047 23.3336 36.1649C23.3336 36.625 22.9602 36.9984 22.5 36.9984H19.1666Z" fill="white"/>
<path d="M19.1669 41.9984C16.8686 41.9984 15.0007 40.1281 15.0007 37.8321V27.8325C15.0007 25.5357 16.8693 23.6663 19.1669 23.6663H35.8327C38.1295 23.6663 39.9989 25.5365 39.9989 27.8325V37.8321C39.9989 40.1289 38.1287 41.9984 35.8327 41.9984H19.1669ZM16.667 37.8321C16.667 39.211 17.7881 40.332 19.1669 40.332H35.8327C37.2115 40.332 38.3326 39.211 38.3326 37.8321V30.3324H16.667V37.8321ZM38.3334 28.6653V27.8317C38.3334 26.4529 37.2123 25.3318 35.8335 25.3318H19.1669C17.7881 25.3318 16.667 26.4529 16.667 27.8317V28.6653H38.3334Z" fill="white"/>
<path d="M12.5006 27.6959C12.0405 27.6959 11.667 27.3225 11.667 26.8624V26.0343C10.3234 25.6648 9.34839 24.4179 9.34839 23C9.34839 22.5399 9.72181 22.1665 10.182 22.1665C10.6421 22.1665 11.0155 22.5399 11.0155 23C11.0155 23.818 11.6819 24.4851 12.5006 24.4851C13.3193 24.4851 13.9857 23.818 13.9857 23C13.9857 22.1813 13.3193 21.5149 12.5006 21.5149C10.7624 21.5149 9.34917 20.1017 9.34917 18.3635C9.34917 16.9448 10.3241 15.6995 11.6678 15.3277V14.4996C11.6678 14.0394 12.0413 13.666 12.5014 13.666C12.9615 13.666 13.335 14.0394 13.335 14.4996V15.3261C14.6786 15.698 15.6536 16.944 15.6536 18.3619C15.6536 18.8228 15.2802 19.1955 14.82 19.1955C14.3599 19.1955 13.9865 18.8228 13.9865 18.3619C13.9865 17.5541 13.3334 16.8925 12.5264 16.8768H12.474C11.6694 16.8909 11.0155 17.5526 11.0155 18.3619C11.0155 19.1806 11.6819 19.847 12.5006 19.847C14.2388 19.847 15.652 21.2603 15.652 22.9985C15.652 24.4172 14.6771 25.6632 13.3334 26.0327V26.8608C13.3342 27.3225 12.9607 27.6959 12.5006 27.6959Z" fill="white"/>
<path d="M63.0011 -9.53674e-07C64.2944 -9.53674e-07 65.3078 0.133333 66.0411 0.4C66.7744 0.666666 67.2944 1.12667 67.6011 1.78C67.9211 2.43333 68.0811 3.34667 68.0811 4.52C68.0811 5.69333 67.9278 6.60667 67.6211 7.26C67.3278 7.91333 66.8411 8.37333 66.1611 8.64C65.4811 8.89333 64.5611 9.02 63.4011 9.02C62.7878 9.02 62.1878 8.99333 61.6011 8.94C61.0144 8.88667 60.4678 8.82 59.9611 8.74C59.4544 8.66 59.0211 8.58 58.6611 8.5C58.3011 8.40667 58.0544 8.32 57.9211 8.24L57.9811 6.72C58.7678 6.72 59.5811 6.72 60.4211 6.72C61.2744 6.72 62.1144 6.72 62.9411 6.72C63.4744 6.70667 63.8878 6.64 64.1811 6.52C64.4878 6.4 64.7011 6.18 64.8211 5.86C64.9544 5.54 65.0211 5.09333 65.0211 4.52C65.0211 3.93333 64.9544 3.48 64.8211 3.16C64.7011 2.84 64.4878 2.62 64.1811 2.5C63.8878 2.36667 63.4744 2.3 62.9411 2.3C61.7144 2.3 60.6611 2.30667 59.7811 2.32C58.9011 2.33333 58.3078 2.36 58.0011 2.4L57.7011 0.199999C58.2611 0.133332 58.7878 0.0866658 59.2811 0.0599995C59.7744 0.0333323 60.3078 0.0199988 60.8811 0.0199988C61.4678 0.00666563 62.1744 -9.53674e-07 63.0011 -9.53674e-07ZM60.7611 0.199999V14H57.7011V0.199999H60.7611ZM76.0199 0.199999C76.2732 0.199999 76.4932 0.273332 76.6799 0.42C76.8799 0.566666 77.0132 0.759999 77.0799 0.999999L81.0799 14H77.9599L75.1399 3.86C75.0865 3.63333 75.0332 3.40667 74.9799 3.18C74.9265 2.94 74.8799 2.71333 74.8399 2.5H74.2999C74.2599 2.71333 74.2132 2.94 74.1599 3.18C74.1199 3.40667 74.0665 3.63333 73.9999 3.86L71.1799 14H68.0399L72.0599 0.999999C72.1265 0.759999 72.2532 0.566666 72.4399 0.42C72.6399 0.273332 72.8665 0.199999 73.1199 0.199999H76.0199ZM78.1399 8.06V10.36H70.9799V8.06H78.1399ZM92.1544 0.199999L87.4944 9.62H84.6144L79.9344 0.199999H83.1144L85.4344 5.28C85.5544 5.54667 85.6544 5.83333 85.7344 6.14C85.8144 6.44667 85.8877 6.74 85.9544 7.02H86.1544C86.2344 6.74 86.3144 6.44667 86.3944 6.14C86.4744 5.83333 86.5677 5.54667 86.6744 5.28L88.9744 0.199999H92.1544ZM87.5744 7.76V14H84.5144V7.76H87.5744ZM102.57 0.0399997C103.77 0.0399997 104.723 0.146666 105.43 0.359999C106.15 0.559999 106.67 0.919999 106.99 1.44C107.31 1.96 107.47 2.69333 107.47 3.64C107.47 4.62667 107.277 5.38 106.89 5.9C106.517 6.40667 105.897 6.7 105.03 6.78V6.9C106.097 6.99333 106.843 7.35333 107.27 7.98C107.697 8.59333 107.91 9.45333 107.91 10.56C107.91 11.5067 107.743 12.24 107.41 12.76C107.09 13.28 106.583 13.6467 105.89 13.86C105.21 14.06 104.317 14.16 103.21 14.16C102.317 14.16 101.537 14.1533 100.87 14.14C100.217 14.14 99.61 14.1267 99.05 14.1C98.49 14.0733 97.9167 14.04 97.33 14L97.63 11.88C97.95 11.8933 98.5633 11.9067 99.47 11.92C100.39 11.9333 101.457 11.94 102.67 11.94C103.23 11.94 103.67 11.8867 103.99 11.78C104.31 11.6733 104.53 11.48 104.65 11.2C104.783 10.9067 104.85 10.4933 104.85 9.96C104.85 9.38667 104.783 8.95333 104.65 8.66C104.517 8.35333 104.283 8.14 103.95 8.02C103.63 7.9 103.183 7.83333 102.61 7.82H97.61V5.88H102.57C103.063 5.86667 103.45 5.81333 103.73 5.72C104.023 5.62667 104.23 5.44667 104.35 5.18C104.47 4.91333 104.53 4.54 104.53 4.06C104.53 3.56667 104.463 3.19333 104.33 2.94C104.21 2.67333 103.997 2.49333 103.69 2.4C103.383 2.30667 102.957 2.26 102.41 2.26C101.663 2.26 101.003 2.26 100.43 2.26C99.8567 2.26 99.3433 2.26667 98.89 2.28C98.4367 2.28 98.0167 2.29333 97.63 2.32L97.33 0.199999C97.8633 0.146666 98.3767 0.113333 98.87 0.099999C99.3767 0.0733326 99.9233 0.0599995 100.51 0.0599995C101.097 0.0466663 101.783 0.0399997 102.57 0.0399997ZM100.33 0.199999V14H97.33V0.199999H100.33ZM120.65 0.199999L115.99 9.62H113.11L108.43 0.199999H111.61L113.93 5.28C114.05 5.54667 114.15 5.83333 114.23 6.14C114.31 6.44667 114.384 6.74 114.45 7.02H114.65C114.73 6.74 114.81 6.44667 114.89 6.14C114.97 5.83333 115.064 5.54667 115.17 5.28L117.47 0.199999H120.65ZM116.07 7.76V14H113.01V7.76H116.07Z" fill="white"/>
<path d="M66.1815 21.472C67.3121 21.4933 68.5601 21.568 69.9255 21.696C71.2908 21.824 72.6135 22.0907 73.8935 22.496L73.5095 26.4C72.5708 26.3787 71.4188 26.3573 70.0535 26.336C68.7095 26.3147 67.3868 26.304 66.0855 26.304C65.5948 26.304 65.1788 26.3253 64.8375 26.368C64.5175 26.3893 64.2508 26.4533 64.0375 26.56C63.8455 26.6453 63.7068 26.784 63.6215 26.976C63.5361 27.1467 63.4935 27.392 63.4935 27.712C63.4935 28.224 63.6428 28.6187 63.9415 28.896C64.2615 29.152 64.8161 29.4187 65.6055 29.696L69.7335 31.232C71.5255 31.936 72.7735 32.8107 73.4775 33.856C74.2028 34.88 74.5655 36.2133 74.5655 37.856C74.5655 39.0933 74.4161 40.1387 74.1175 40.992C73.8188 41.8453 73.3281 42.5173 72.6455 43.008C71.9841 43.4987 71.0988 43.8613 69.9895 44.096C68.9015 44.3307 67.5468 44.448 65.9255 44.448C65.1788 44.448 64.0801 44.3947 62.6295 44.288C61.2001 44.1813 59.5788 43.904 57.7655 43.456L58.1175 39.232C59.3975 39.2533 60.5281 39.2853 61.5095 39.328C62.5121 39.3493 63.3761 39.3707 64.1015 39.392C64.8481 39.392 65.4348 39.392 65.8615 39.392C66.5868 39.392 67.1415 39.36 67.5255 39.296C67.9095 39.2107 68.1761 39.072 68.3255 38.88C68.4748 38.6667 68.5495 38.368 68.5495 37.984C68.5495 37.6213 68.4961 37.3333 68.3895 37.12C68.2828 36.9067 68.0908 36.7253 67.8135 36.576C67.5575 36.4267 67.2055 36.2773 66.7575 36.128L62.3415 34.368C60.5921 33.6427 59.3548 32.7787 58.6295 31.776C57.9041 30.7733 57.5415 29.4613 57.5415 27.84C57.5415 26.56 57.7015 25.5147 58.0215 24.704C58.3415 23.8933 58.8321 23.2533 59.4935 22.784C60.1761 22.3147 61.0721 21.984 62.1815 21.792C63.2908 21.5787 64.6241 21.472 66.1815 21.472ZM100.986 21.92C102.372 21.92 103.087 22.624 103.13 24.032L103.962 44H98.4897L97.7857 26.464H97.2737L94.4577 38.848C94.2444 40.0853 93.4764 40.704 92.1537 40.704H88.7937C87.4924 40.704 86.7137 40.0853 86.4577 38.848L83.6417 26.464H83.1297L82.5217 44H77.0497L77.8497 24.032C77.9137 22.624 78.6284 21.92 79.9937 21.92H85.3697C86.6497 21.92 87.407 22.5493 87.6417 23.808L89.8177 33.632C89.9244 34.144 90.0097 34.6773 90.0737 35.232C90.159 35.7653 90.2337 36.3093 90.2977 36.864H90.6497C90.735 36.3093 90.8097 35.7653 90.8737 35.232C90.9377 34.6773 91.023 34.1333 91.1297 33.6L93.2097 23.808C93.4657 22.5493 94.2444 21.92 95.5457 21.92H100.986ZM115.244 21.472C116.375 21.4933 117.623 21.568 118.988 21.696C120.353 21.824 121.676 22.0907 122.956 22.496L122.572 26.4C121.633 26.3787 120.481 26.3573 119.116 26.336C117.772 26.3147 116.449 26.304 115.148 26.304C114.657 26.304 114.241 26.3253 113.9 26.368C113.58 26.3893 113.313 26.4533 113.1 26.56C112.908 26.6453 112.769 26.784 112.684 26.976C112.599 27.1467 112.556 27.392 112.556 27.712C112.556 28.224 112.705 28.6187 113.004 28.896C113.324 29.152 113.879 29.4187 114.668 29.696L118.796 31.232C120.588 31.936 121.836 32.8107 122.54 33.856C123.265 34.88 123.628 36.2133 123.628 37.856C123.628 39.0933 123.479 40.1387 123.18 40.992C122.881 41.8453 122.391 42.5173 121.708 43.008C121.047 43.4987 120.161 43.8613 119.052 44.096C117.964 44.3307 116.609 44.448 114.988 44.448C114.241 44.448 113.143 44.3947 111.692 44.288C110.263 44.1813 108.641 43.904 106.828 43.456L107.18 39.232C108.46 39.2533 109.591 39.2853 110.572 39.328C111.575 39.3493 112.439 39.3707 113.164 39.392C113.911 39.392 114.497 39.392 114.924 39.392C115.649 39.392 116.204 39.36 116.588 39.296C116.972 39.2107 117.239 39.072 117.388 38.88C117.537 38.6667 117.612 38.368 117.612 37.984C117.612 37.6213 117.559 37.3333 117.452 37.12C117.345 36.9067 117.153 36.7253 116.876 36.576C116.62 36.4267 116.268 36.2773 115.82 36.128L111.404 34.368C109.655 33.6427 108.417 32.7787 107.692 31.776C106.967 30.7733 106.604 29.4613 106.604 27.84C106.604 26.56 106.764 25.5147 107.084 24.704C107.404 23.8933 107.895 23.2533 108.556 22.784C109.239 22.3147 110.135 21.984 111.244 21.792C112.353 21.5787 113.687 21.472 115.244 21.472Z" fill="#FFC800"/>
</svg>
