<svg width="185" height="45" viewBox="0 0 185 45" fill="none" xmlns="http://www.w3.org/2000/svg">
<path d="M0 10.0445C1.37355 9.34584 1.57156 9.30632 2.52393 9.51179C2.52393 8.25201 2.54279 6.97641 2.51765 5.70082C2.50036 4.81408 2.39192 3.93049 2.37621 3.04374C2.36521 2.44625 2.80995 2.1475 3.38985 2.17438C3.74503 2.19018 4.11435 1.97679 4.46638 2.00209C6.00337 2.11747 6.24698 2.49051 5.98923 4.03955C5.93738 4.35094 6.00966 4.72556 6.14166 5.0164C6.71844 6.28883 7.33607 7.54072 7.94111 8.8005C8.47858 9.91804 8.53203 10.0144 9.79243 10.2247C11.0622 10.4365 12.3509 10.5377 13.6302 10.6878C14.4741 10.7874 15.3291 11.0229 16.1604 10.9549C17.2196 10.8696 18.315 10.672 19.2784 10.2531C19.709 10.0666 19.9164 9.24308 20.1192 8.67088C20.6142 7.27042 20.8531 7.20246 22.3681 7.44746C24.1078 7.72723 25.8758 7.83314 27.633 7.99595C28.3527 8.06233 29.0552 8.14769 29.7026 7.57708C29.929 7.37791 30.4727 7.49805 30.8639 7.5423C32.5016 7.72248 34.1391 7.90427 35.7687 8.13346C37.4725 8.37215 39.1618 8.72937 40.8702 8.90168C41.5773 8.97278 42.3174 8.62821 43.0483 8.59502C43.6785 8.56497 44.2852 8.16823 44.9765 8.5871C45.2989 8.78154 45.8504 8.65509 46.2842 8.58554C46.8357 8.49701 47.3732 8.23305 47.8086 8.8574C47.8635 8.93645 48.1748 8.82421 48.3696 8.81473C48.75 8.79577 49.2042 8.66774 49.1665 9.34426C48.566 9.45331 47.9688 9.5608 47.3717 9.66829C47.3748 9.73783 47.3763 9.80738 47.3797 9.87693C47.744 9.89906 48.1087 9.92118 48.5237 9.94648C48.4483 10.8838 49.2073 10.7542 49.7448 10.8364C51.574 11.1193 53.4065 11.3722 55.2437 11.6046C56.7808 11.799 58.3302 11.9033 59.8626 12.1262C61.3586 12.3428 62.8407 12.6557 64.3289 12.9308C64.3744 12.9387 64.4296 12.9734 64.4562 13.0114C65.3096 14.2949 67.0177 14.9082 67.2817 16.6595C67.3008 16.7876 67.4358 16.9362 67.5568 17.0025C68.371 17.4467 69.1945 17.8719 70.0165 18.3003C70.106 18.3477 70.2286 18.4378 70.2928 18.4109C71.9194 17.6854 73.5791 18.3445 75.2198 18.3066C76.4268 18.2797 77.6369 18.5058 78.847 18.5706C79.6674 18.6132 79.9613 19.1902 79.9706 19.8114C80.0194 22.8542 79.9928 25.9001 79.9928 28.965C78.6663 29.8121 77.56 29.066 76.4598 28.2142C74.544 26.7299 72.5576 25.3295 70.7109 23.763C69.5104 22.7451 68.066 22.2804 66.7287 21.5738C66.4709 21.4379 66.1393 21.441 65.8061 21.3731C65.3411 22.9016 65.4242 24.3495 65.7354 25.8368C66.0577 27.3764 66.2745 28.9429 66.4616 30.5076C66.5462 31.2127 65.5406 32.1832 64.835 32.172C64.06 32.1596 63.2853 32.0978 62.685 32.0663C62.1114 29.341 61.5614 26.7268 61.0112 24.1171C59.5279 24.1171 58.1777 24.1171 56.724 24.1171C56.3405 24.536 57.7361 25.9965 56.0169 25.8701C55.22 28.3248 54.5632 30.7938 53.6156 33.1459C52.5531 35.7824 51.1513 38.2607 49.2653 40.4279C48.9575 40.7819 48.8096 41.2719 48.5363 41.6625C48.4261 41.8189 48.1779 41.9674 47.9941 41.9659C47.4251 41.9612 46.743 42.1936 46.3864 41.5059C45.7074 40.1955 45.016 38.8869 44.4202 37.5369C44.1061 36.8241 43.9851 36.0257 43.7949 35.3349C48.0207 31.0182 49.8344 25.6582 50.6452 19.7039C49.4083 19.5379 48.1998 19.2882 46.9851 19.2455C46.303 19.2218 45.6067 19.5364 44.9185 19.7023C43.6312 20.0121 42.4919 19.7861 41.3179 19.0953C40.4945 18.6117 39.4511 18.4646 38.4859 18.2765C36.1177 17.815 33.7225 17.4815 31.3669 16.9646C30.2934 16.7291 29.3112 16.0937 28.2441 15.8092C27.4317 15.5926 26.5486 15.6448 25.6967 15.5736C23.8139 15.4187 21.9328 15.248 20.05 15.1184C19.7247 15.0963 19.2941 14.875 19.0772 15.4646C19.0175 15.6258 18.4329 15.6226 18.0871 15.6353C17.7807 15.6463 17.4695 15.5736 17.0939 15.5294C17.0043 14.7801 16.3788 14.8244 15.8115 14.7849C13.4322 14.6221 11.0528 14.4466 8.6719 14.3154C7.67239 14.2601 6.66815 14.3375 5.66706 14.2933C5.26473 14.2759 4.86713 14.1005 4.4711 13.9835C4.01536 13.8475 3.56273 13.6974 3.03625 13.5283C2.9954 13.4081 2.86967 13.1947 2.85868 12.975C2.83197 12.4091 2.57265 12.2274 2.01632 12.2369C1.34212 12.2463 0.671057 12.1499 0 12.1009C0 11.4149 0 10.7305 0 10.0445ZM16.9226 13.5362C16.1227 13.4714 15.4013 13.4239 14.6816 13.3528C13.1933 13.2058 11.7082 13.0414 10.2199 12.896C9.5284 12.828 8.82906 12.73 8.13912 12.7632C7.64095 12.7869 7.15063 13.0066 6.71057 13.1236C7.03119 13.4903 14.9503 14.3296 16.7749 14.1036C16.8205 13.9297 16.866 13.7543 16.9226 13.5362ZM28.2959 11.1731C26.4275 10.9186 24.6044 10.6641 22.7767 10.4302C22.6415 10.4128 22.4074 10.5044 22.3571 10.6119C22.1999 10.9518 22.6682 11.5951 23.0674 11.6346C24.1675 11.7437 25.2802 11.7832 26.3646 11.984C27.1927 12.1373 27.9393 12.3759 28.2959 11.1731ZM18.9688 14.4277C22.1921 14.6869 25.145 14.924 28.098 15.1611C28.1326 15.071 28.1671 14.9793 28.2002 14.8892C28.0069 14.7501 27.8262 14.5114 27.6203 14.4861C26.4933 14.3439 25.3635 14.2143 24.2304 14.1558C22.6651 14.0752 21.0983 14.053 19.5298 14.0293C19.4072 14.0277 19.2815 14.2 18.9688 14.4277ZM58.2783 20.7139C58.2295 21.5896 58.2107 22.3136 58.1415 23.0327C58.0881 23.5907 58.3428 23.9385 58.8458 23.9416C59.3674 23.9448 60.1062 24.3147 60.301 23.3584C60.0148 23.3299 59.7351 23.3015 59.5514 23.2825C59.6363 22.5159 59.7163 21.7824 59.8043 20.9937C59.2762 20.8957 58.8566 20.8198 58.2783 20.7139ZM4.28251 8.73095C4.95985 8.79891 5.58378 8.86215 6.23127 8.92853C5.91222 7.96592 5.42347 7.29096 4.28251 7.39373C4.28251 7.81418 4.28251 8.2457 4.28251 8.73095Z" fill="white"/>
<path d="M99.0023 -9.53674e-07C100.296 -9.53674e-07 101.309 0.133333 102.042 0.4C102.776 0.666666 103.296 1.12667 103.602 1.78C103.922 2.43333 104.082 3.34667 104.082 4.52C104.082 5.69333 103.929 6.60667 103.622 7.26C103.329 7.91333 102.842 8.37333 102.162 8.64C101.482 8.89333 100.562 9.02 99.4023 9.02C98.7889 9.02 98.1889 8.99333 97.6023 8.94C97.0156 8.88667 96.4689 8.82 95.9623 8.74C95.4556 8.66 95.0223 8.58 94.6623 8.5C94.3023 8.40667 94.0556 8.32 93.9223 8.24L93.9823 6.72C94.7689 6.72 95.5823 6.72 96.4223 6.72C97.2756 6.72 98.1156 6.72 98.9423 6.72C99.4756 6.70667 99.8889 6.64 100.182 6.52C100.489 6.4 100.702 6.18 100.822 5.86C100.956 5.54 101.022 5.09333 101.022 4.52C101.022 3.93333 100.956 3.48 100.822 3.16C100.702 2.84 100.489 2.62 100.182 2.5C99.8889 2.36667 99.4756 2.3 98.9423 2.3C97.7156 2.3 96.6623 2.30667 95.7823 2.32C94.9023 2.33333 94.3089 2.36 94.0023 2.4L93.7023 0.199999C94.2623 0.133332 94.7889 0.0866658 95.2823 0.0599995C95.7756 0.0333323 96.3089 0.0199988 96.8823 0.0199988C97.4689 0.00666563 98.1756 -9.53674e-07 99.0023 -9.53674e-07ZM96.7623 0.199999V14H93.7023V0.199999H96.7623ZM112.021 0.199999C112.274 0.199999 112.494 0.273332 112.681 0.42C112.881 0.566666 113.014 0.759999 113.081 0.999999L117.081 14H113.961L111.141 3.86C111.088 3.63333 111.034 3.40667 110.981 3.18C110.928 2.94 110.881 2.71333 110.841 2.5H110.301C110.261 2.71333 110.214 2.94 110.161 3.18C110.121 3.40667 110.068 3.63333 110.001 3.86L107.181 14H104.041L108.061 0.999999C108.128 0.759999 108.254 0.566666 108.441 0.42C108.641 0.273332 108.868 0.199999 109.121 0.199999H112.021ZM114.141 8.06V10.36H106.981V8.06H114.141ZM128.156 0.199999L123.496 9.62H120.616L115.936 0.199999H119.116L121.436 5.28C121.556 5.54667 121.656 5.83333 121.736 6.14C121.816 6.44667 121.889 6.74 121.956 7.02H122.156C122.236 6.74 122.316 6.44667 122.396 6.14C122.476 5.83333 122.569 5.54667 122.676 5.28L124.976 0.199999H128.156ZM123.576 7.76V14H120.516V7.76H123.576ZM138.571 0.0399997C139.771 0.0399997 140.725 0.146666 141.431 0.359999C142.151 0.559999 142.671 0.919999 142.991 1.44C143.311 1.96 143.471 2.69333 143.471 3.64C143.471 4.62667 143.278 5.38 142.891 5.9C142.518 6.40667 141.898 6.7 141.031 6.78V6.9C142.098 6.99333 142.845 7.35333 143.271 7.98C143.698 8.59333 143.911 9.45333 143.911 10.56C143.911 11.5067 143.745 12.24 143.411 12.76C143.091 13.28 142.585 13.6467 141.891 13.86C141.211 14.06 140.318 14.16 139.211 14.16C138.318 14.16 137.538 14.1533 136.871 14.14C136.218 14.14 135.611 14.1267 135.051 14.1C134.491 14.0733 133.918 14.04 133.331 14L133.631 11.88C133.951 11.8933 134.565 11.9067 135.471 11.92C136.391 11.9333 137.458 11.94 138.671 11.94C139.231 11.94 139.671 11.8867 139.991 11.78C140.311 11.6733 140.531 11.48 140.651 11.2C140.785 10.9067 140.851 10.4933 140.851 9.96C140.851 9.38667 140.785 8.95333 140.651 8.66C140.518 8.35333 140.285 8.14 139.951 8.02C139.631 7.9 139.185 7.83333 138.611 7.82H133.611V5.88H138.571C139.065 5.86667 139.451 5.81333 139.731 5.72C140.025 5.62667 140.231 5.44667 140.351 5.18C140.471 4.91333 140.531 4.54 140.531 4.06C140.531 3.56667 140.465 3.19333 140.331 2.94C140.211 2.67333 139.998 2.49333 139.691 2.4C139.385 2.30667 138.958 2.26 138.411 2.26C137.665 2.26 137.005 2.26 136.431 2.26C135.858 2.26 135.345 2.26667 134.891 2.28C134.438 2.28 134.018 2.29333 133.631 2.32L133.331 0.199999C133.865 0.146666 134.378 0.113333 134.871 0.099999C135.378 0.0733326 135.925 0.0599995 136.511 0.0599995C137.098 0.0466663 137.785 0.0399997 138.571 0.0399997ZM136.331 0.199999V14H133.331V0.199999H136.331ZM156.652 0.199999L151.992 9.62H149.112L144.432 0.199999H147.612L149.932 5.28C150.052 5.54667 150.152 5.83333 150.232 6.14C150.312 6.44667 150.385 6.74 150.452 7.02H150.652C150.732 6.74 150.812 6.44667 150.892 6.14C150.972 5.83333 151.065 5.54667 151.172 5.28L153.472 0.199999H156.652ZM152.072 7.76V14H149.012V7.76H152.072Z" fill="white"/>
<path d="M101.995 21.472C103.126 21.4933 104.374 21.568 105.739 21.696C107.104 21.824 108.427 22.0907 109.707 22.496L109.323 26.4C108.384 26.3787 107.232 26.3573 105.867 26.336C104.523 26.3147 103.2 26.304 101.899 26.304C101.408 26.304 100.992 26.3253 100.651 26.368C100.331 26.3893 100.064 26.4533 99.8511 26.56C99.6591 26.6453 99.5205 26.784 99.4351 26.976C99.3498 27.1467 99.3071 27.392 99.3071 27.712C99.3071 28.224 99.4565 28.6187 99.7551 28.896C100.075 29.152 100.63 29.4187 101.419 29.696L105.547 31.232C107.339 31.936 108.587 32.8107 109.291 33.856C110.016 34.88 110.379 36.2133 110.379 37.856C110.379 39.0933 110.23 40.1387 109.931 40.992C109.632 41.8453 109.142 42.5173 108.459 43.008C107.798 43.4987 106.912 43.8613 105.803 44.096C104.715 44.3307 103.36 44.448 101.739 44.448C100.992 44.448 99.8938 44.3947 98.4431 44.288C97.0138 44.1813 95.3925 43.904 93.5791 43.456L93.9311 39.232C95.2111 39.2533 96.3418 39.2853 97.3231 39.328C98.3258 39.3493 99.1898 39.3707 99.9151 39.392C100.662 39.392 101.248 39.392 101.675 39.392C102.4 39.392 102.955 39.36 103.339 39.296C103.723 39.2107 103.99 39.072 104.139 38.88C104.288 38.6667 104.363 38.368 104.363 37.984C104.363 37.6213 104.31 37.3333 104.203 37.12C104.096 36.9067 103.904 36.7253 103.627 36.576C103.371 36.4267 103.019 36.2773 102.571 36.128L98.1551 34.368C96.4058 33.6427 95.1685 32.7787 94.4431 31.776C93.7178 30.7733 93.3551 29.4613 93.3551 27.84C93.3551 26.56 93.5151 25.5147 93.8351 24.704C94.1551 23.8933 94.6458 23.2533 95.3071 22.784C95.9898 22.3147 96.8858 21.984 97.9951 21.792C99.1045 21.5787 100.438 21.472 101.995 21.472ZM132.095 21.92L126.719 30.688C126.463 31.1147 126.175 31.488 125.855 31.808C125.535 32.1067 125.226 32.3413 124.927 32.512V32.608C125.226 32.7787 125.578 33.056 125.983 33.44C126.389 33.8027 126.709 34.208 126.943 34.656L132.447 44H125.791L119.487 32.448L125.663 21.92H132.095ZM119.295 21.92V27.808C119.295 28.576 119.221 29.3653 119.071 30.176C118.943 30.9653 118.741 31.712 118.463 32.416C118.677 33.0773 118.869 33.792 119.039 34.56C119.21 35.3067 119.295 35.9893 119.295 36.608V44H113.311V21.92H119.295ZM121.375 30.528V34.528H117.535V30.528H121.375ZM140.295 21.92V44H134.343V21.92H140.295ZM163.706 21.92V41.888C163.706 43.296 163.013 44 161.626 44H158.938C158.298 44 157.818 43.8507 157.498 43.552C157.2 43.2533 156.89 42.816 156.57 42.24L151.162 32.832C150.906 32.2987 150.65 31.7227 150.394 31.104C150.138 30.4853 149.925 29.8667 149.754 29.248H149.466C149.552 29.8667 149.616 30.5067 149.658 31.168C149.722 31.808 149.754 32.4267 149.754 33.024V44H144.154V24.032C144.154 22.624 144.858 21.92 146.266 21.92H148.922C149.562 21.92 150.032 22.0693 150.33 22.368C150.629 22.6667 150.949 23.104 151.29 23.68L156.474 32.736C156.773 33.248 157.061 33.8133 157.338 34.432C157.616 35.0507 157.882 35.7013 158.138 36.384H158.426C158.362 35.7227 158.309 35.072 158.266 34.432C158.224 33.792 158.202 33.152 158.202 32.512L158.17 21.92H163.706ZM175.433 21.472C176.563 21.4933 177.811 21.568 179.177 21.696C180.542 21.824 181.865 22.0907 183.145 22.496L182.761 26.4C181.822 26.3787 180.67 26.3573 179.305 26.336C177.961 26.3147 176.638 26.304 175.337 26.304C174.846 26.304 174.43 26.3253 174.089 26.368C173.769 26.3893 173.502 26.4533 173.289 26.56C173.097 26.6453 172.958 26.784 172.873 26.976C172.787 27.1467 172.745 27.392 172.745 27.712C172.745 28.224 172.894 28.6187 173.193 28.896C173.513 29.152 174.067 29.4187 174.857 29.696L178.985 31.232C180.777 31.936 182.025 32.8107 182.729 33.856C183.454 34.88 183.817 36.2133 183.817 37.856C183.817 39.0933 183.667 40.1387 183.369 40.992C183.07 41.8453 182.579 42.5173 181.897 43.008C181.235 43.4987 180.35 43.8613 179.241 44.096C178.153 44.3307 176.798 44.448 175.177 44.448C174.43 44.448 173.331 44.3947 171.881 44.288C170.451 44.1813 168.83 43.904 167.017 43.456L167.369 39.232C168.649 39.2533 169.779 39.2853 170.761 39.328C171.763 39.3493 172.627 39.3707 173.353 39.392C174.099 39.392 174.686 39.392 175.113 39.392C175.838 39.392 176.393 39.36 176.777 39.296C177.161 39.2107 177.427 39.072 177.577 38.88C177.726 38.6667 177.801 38.368 177.801 37.984C177.801 37.6213 177.747 37.3333 177.641 37.12C177.534 36.9067 177.342 36.7253 177.065 36.576C176.809 36.4267 176.457 36.2773 176.009 36.128L171.593 34.368C169.843 33.6427 168.606 32.7787 167.881 31.776C167.155 30.7733 166.793 29.4613 166.793 27.84C166.793 26.56 166.953 25.5147 167.273 24.704C167.593 23.8933 168.083 23.2533 168.745 22.784C169.427 22.3147 170.323 21.984 171.433 21.792C172.542 21.5787 173.875 21.472 175.433 21.472Z" fill="url(#paint0_linear_2926_15836)"/>
<defs>
<linearGradient id="paint0_linear_2926_15836" x1="92" y1="33" x2="185" y2="33" gradientUnits="userSpaceOnUse">
<stop stop-color="#6CB6FF"/>
<stop offset="1" stop-color="#CA5EFF"/>
</linearGradient>
</defs>
</svg>
