<svg width="119" height="40" viewBox="0 0 119 40" fill="none" xmlns="http://www.w3.org/2000/svg">
<path d="M80.2834 39.5544H90.058V12.2348H80.2834V39.5544ZM74.7543 11.8418C65.7202 12.1366 61.1291 16.1657 61.1291 24.1749V39.5544H71.0025V27.0248C71.0025 22.2094 71.6442 20.1457 77.3708 19.9492V11.94C76.729 11.8418 76.0379 11.7926 75.3467 11.7926L74.7543 11.8418ZM0.753662 14.102C0.753662 17.2467 2.13593 24.6662 14.7244 25.5507C15.8105 25.5998 18.6244 25.7964 18.6244 28.4497C18.6244 30.6117 16.3042 31.9384 12.4042 31.9384C8.65233 31.8401 4.94983 31.103 1.4448 29.7764V38.5226C5.69033 39.5544 10.084 40.0458 14.4776 39.9967C25.2395 39.9967 30.0775 33.9529 30.0775 27.9583C30.0775 21.1776 24.6471 16.7554 15.613 16.1657C14.3789 16.0675 11.5156 15.92 11.5156 13.3158C11.5156 10.2203 15.613 10.2203 17.1928 10.2203C19.9079 10.2203 23.413 11.0064 25.9307 11.7926C25.9307 11.7926 27.3129 12.284 28.5471 12.7753L28.6458 12.8245V4.27483L28.4977 4.22569C25.5357 3.19384 22.0801 2.21112 15.7118 2.21112C4.65363 2.21112 0.753662 8.59879 0.753662 14.102ZM32.5458 4.17655V39.5544H42.6166V28.5971C45.5292 32.9702 47.0102 39.5544 47.0102 39.5544H59.1051C57.9203 34.5917 52.6874 25.5015 52.6874 25.5015C55.7975 21.5215 58.1671 17.0502 59.7962 12.2348H48.195C46.8621 15.6744 44.9862 18.9173 42.6166 21.7672V2.21112L32.5458 4.17655ZM94.2048 3.93087V39.5544H103.979V2.21112L94.2048 3.93087ZM108.472 3.93087V39.5544H118.246V2.21112L108.472 3.93087ZM85.1707 0C82.5049 0 80.3328 2.16198 80.3328 4.81532C80.3328 7.46866 82.5049 9.63064 85.1707 9.63064C87.8365 9.63064 90.0086 7.46866 90.0086 4.81532C89.9593 2.16198 87.8365 0 85.1707 0Z" fill="#872165"/>
<mask id="mask0_2926_15842" style="mask-type:luminance" maskUnits="userSpaceOnUse" x="0" y="0" width="119" height="40">
<path d="M80.2834 39.5544H90.058V12.2348H80.2834V39.5544ZM74.7543 11.8418C65.7202 12.1366 61.1291 16.1657 61.1291 24.1749V39.5544H71.0025V27.0248C71.0025 22.2094 71.6442 20.1457 77.3708 19.9492V11.94C76.729 11.8418 76.0379 11.7926 75.3467 11.7926L74.7543 11.8418ZM0.753662 14.102C0.753662 17.2467 2.13593 24.6662 14.7244 25.5507C15.8105 25.5998 18.6244 25.7964 18.6244 28.4497C18.6244 30.6117 16.3042 31.9384 12.4042 31.9384C8.65233 31.8401 4.94983 31.103 1.4448 29.7764V38.5226C5.69033 39.5544 10.084 40.0458 14.4776 39.9967C25.2395 39.9967 30.0775 33.9529 30.0775 27.9583C30.0775 21.1776 24.6471 16.7554 15.613 16.1657C14.3789 16.0675 11.5156 15.92 11.5156 13.3158C11.5156 10.2203 15.613 10.2203 17.1928 10.2203C19.9079 10.2203 23.413 11.0064 25.9307 11.7926C25.9307 11.7926 27.3129 12.284 28.5471 12.7753L28.6458 12.8245V4.27483L28.4977 4.22569C25.5357 3.19384 22.0801 2.21112 15.7118 2.21112C4.65363 2.21112 0.753662 8.59879 0.753662 14.102ZM32.5458 4.17655V39.5544H42.6166V28.5971C45.5292 32.9702 47.0102 39.5544 47.0102 39.5544H59.1051C57.9203 34.5917 52.6874 25.5015 52.6874 25.5015C55.7975 21.5215 58.1671 17.0502 59.7962 12.2348H48.195C46.8621 15.6744 44.9862 18.9173 42.6166 21.7672V2.21112L32.5458 4.17655ZM94.2048 3.93087V39.5544H103.979V2.21112L94.2048 3.93087ZM108.472 3.93087V39.5544H118.246V2.21112L108.472 3.93087ZM85.1707 0C82.5049 0 80.3328 2.16198 80.3328 4.81532C80.3328 7.46866 82.5049 9.63064 85.1707 9.63064C87.8365 9.63064 90.0086 7.46866 90.0086 4.81532C89.9593 2.16198 87.8365 0 85.1707 0Z" fill="white"/>
</mask>
<g mask="url(#mask0_2926_15842)">
<path d="M118.246 0H0.753662V39.9475H118.246V0Z" fill="#872165"/>
</g>
</svg>
