<svg width="36" height="36" viewBox="0 0 36 36" fill="none" xmlns="http://www.w3.org/2000/svg">
<g clip-path="url(#clip0_2933_11150)">
<path d="M21.4716 0C20.8873 -2.72124e-06 20.3029 0.22387 19.8552 0.671623L5.31505 15.2116C5.31314 15.2133 5.31165 15.2152 5.31015 15.2165L0.671492 19.8551C0.223776 20.3028 -4.74289e-05 20.8871 -6.10352e-05 21.4715C-6.10352e-05 22.0558 0.223776 22.6402 0.67156 23.088L3.00025 25.4165L25.4168 3.00031L23.088 0.671627C22.6402 0.223889 22.0559 0 21.4716 0ZM27.3892 4.9732L4.97262 27.3895L12.9117 35.3284C13.8072 36.2239 15.2491 36.2239 16.1446 35.3284L19.764 31.709C19.4949 30.8291 19.3495 29.897 19.3495 28.9331C19.3495 23.6699 23.6699 19.3494 28.9331 19.3494C29.8971 19.3494 30.8291 19.4948 31.7091 19.7639L35.3282 16.1449C36.2237 15.2495 36.2237 13.8076 35.3282 12.9121L27.3892 4.9732ZM14.8356 21.4717L16.8081 23.4443L10.8904 29.3619L8.91786 27.3894L14.8356 21.4717ZM28.9332 21.8666C27.059 21.8666 25.2616 22.6111 23.9363 23.9363C22.6111 25.2616 21.8665 27.059 21.8665 28.9332C21.8665 29.8613 22.0493 30.7802 22.4044 31.6376C22.7596 32.4949 23.2801 33.274 23.9363 33.9302C24.5925 34.5864 25.3715 35.1069 26.2289 35.4621C27.0863 35.8172 28.0052 36 28.9332 36C29.8612 36 30.7802 35.8172 31.6376 35.4621C32.4949 35.107 33.274 34.5864 33.9302 33.9302C34.5864 33.274 35.1069 32.495 35.4621 31.6376C35.8172 30.7802 36 29.8613 36 28.9332C36 28.0052 35.8172 27.0863 35.462 26.2289C35.1069 25.3716 34.5864 24.5925 33.9302 23.9363C33.2739 23.2801 32.4949 22.7596 31.6375 22.4045C30.7802 22.0493 29.8612 21.8665 28.9332 21.8666ZM27.68 24.2938H30.1865V27.68H33.5727V30.1865H30.1865V33.5727H27.68V30.1865H24.2937V27.68H27.68V24.2938Z" fill="#5CD971"/>
</g>
<defs>
<clipPath id="clip0_2933_11150">
<rect width="36" height="36" fill="white"/>
</clipPath>
</defs>
</svg>
