<svg width="175" height="40" viewBox="0 0 175 40" fill="none" xmlns="http://www.w3.org/2000/svg">
<path d="M53.2629 7.01636C47.568 7.01636 42.4547 9.9797 42.4547 15.4176C42.4547 21.6803 51.4871 22.108 51.4871 25.2241C51.4871 26.5378 49.9562 27.7292 47.3842 27.7292C43.7101 27.7292 40.9544 26.0795 40.9544 26.0795L39.7909 31.5785C39.7909 31.5785 42.9446 32.9838 47.1699 32.9838C53.416 32.9838 58.3149 29.8983 58.3149 24.3382C58.3149 17.7394 49.252 17.3117 49.252 14.4094C49.252 13.3707 50.5073 12.2404 53.0792 12.2404C55.988 12.2404 58.3762 13.4318 58.3762 13.4318L59.5397 8.11615C59.5091 8.11615 56.9065 7.01636 53.2629 7.01636ZM1.08949 7.41351L0.936401 8.2078C0.936401 8.2078 3.32462 8.6355 5.49852 9.52145C8.28477 10.5296 8.46848 11.11 8.95838 12.9125L14.0716 32.5561H20.9301L31.4322 7.41351H24.6043L17.8377 24.5215L15.082 10.0103C14.8371 8.36055 13.5511 7.41351 11.959 7.41351H1.08949ZM34.1878 7.41351L28.8296 32.5561H35.3513L40.6789 7.41351H34.1878ZM70.501 7.41351C68.9395 7.41351 68.1128 8.23835 67.5004 9.70475L57.9475 32.5561H64.7754L66.092 28.7374H74.4201L75.2162 32.5561H81.248L76.0123 7.41351H70.501ZM71.3889 14.2261L73.4097 23.6661H67.9903L71.3889 14.2261Z" fill="white"/>
<rect x="105.456" y="8.55273" width="1" height="24" transform="rotate(20 105.456 8.55273)" fill="white"/>
<path d="M155.214 3.41357H141.245V28.4835H155.214V3.41357Z" fill="#FF5F00"/>
<path d="M142.134 15.9492C142.134 11.077 144.396 6.42618 148.209 3.41425C141.291 -2.0338 131.269 -0.837882 125.815 6.11613C120.36 13.0259 121.557 23.0361 128.52 28.4841C134.329 33.0463 142.444 33.0463 148.254 28.4841C144.396 25.4722 142.134 20.8214 142.134 15.9492Z" fill="#EB001B"/>
<path d="M174.064 15.9492C174.064 24.7635 166.924 31.8947 158.099 31.8947C154.507 31.8947 151.048 30.6988 148.254 28.4841C155.172 23.0361 156.369 13.0259 150.915 6.07184C150.117 5.09739 149.23 4.16724 148.254 3.41425C155.172 -2.0338 165.239 -0.837882 170.649 6.11613C172.866 8.9066 174.064 12.3615 174.064 15.9492Z" fill="#F79E1B"/>
<path d="M172.556 25.8264V25.2949H172.778V25.2063H172.246V25.2949H172.468V25.8264H172.556ZM173.576 25.8264V25.2063H173.399L173.222 25.6492L173.044 25.2063H172.867V25.8264H173V25.3392L173.177 25.7378H173.31L173.488 25.3392V25.8264H173.576Z" fill="#F79E1B"/>
<path d="M129.654 39.8428V36.983C129.654 35.9033 128.963 35.1834 127.852 35.1703C127.267 35.1638 126.663 35.3405 126.242 35.9818C125.926 35.4779 125.427 35.1703 124.73 35.1703C124.243 35.1703 123.763 35.3143 123.389 35.8444V35.2881H122.396V39.8428H123.402V37.3168C123.402 36.525 123.842 36.1061 124.519 36.1061C125.177 36.1061 125.512 36.5381 125.512 37.3102V39.8428H126.518V37.3168C126.518 36.525 126.978 36.1061 127.635 36.1061C128.313 36.1061 128.641 36.5381 128.641 37.3102V39.8428H129.654ZM144.537 35.2881H142.906V33.9008H141.901V35.2881H140.974V36.1912H141.901V38.2722C141.901 39.3324 142.315 39.9606 143.491 39.9606C143.925 39.9606 144.418 39.8297 144.734 39.6072L144.445 38.7565C144.149 38.9266 143.82 39.0117 143.564 39.0117C143.064 39.0117 142.906 38.7041 142.906 38.246V36.1912H144.537V35.2881ZM153.023 35.1703C152.452 35.1703 152.077 35.4387 151.814 35.8378V35.2881H150.828V39.8428H151.82V37.2906C151.82 36.5381 152.149 36.1192 152.8 36.1192C153.004 36.1192 153.214 36.1454 153.424 36.2305L153.733 35.2947C153.516 35.2096 153.227 35.1703 153.023 35.1703ZM140.185 35.6481C139.705 35.3339 139.048 35.1703 138.318 35.1703C137.161 35.1703 136.411 35.72 136.411 36.6297C136.411 37.3757 136.964 37.8338 137.989 37.9712L138.456 38.0366C139.002 38.1152 139.258 38.2526 139.258 38.5143C139.258 38.8677 138.896 39.064 138.213 39.064C137.522 39.064 137.023 38.8416 136.688 38.5863L136.221 39.3585C136.766 39.7577 137.457 39.9475 138.206 39.9475C139.527 39.9475 140.297 39.3258 140.297 38.462C140.297 37.6636 139.692 37.2448 138.699 37.1008L138.232 37.0354C137.799 36.9765 137.457 36.8914 137.457 36.5904C137.457 36.2567 137.785 36.0538 138.331 36.0538C138.916 36.0538 139.481 36.2763 139.758 36.4464L140.185 35.6481ZM166.861 35.1703C166.289 35.1703 165.915 35.4387 165.652 35.8378V35.2881H164.666V39.8428H165.658V37.2906C165.658 36.5381 165.987 36.1192 166.638 36.1192C166.842 36.1192 167.052 36.1454 167.262 36.2305L167.571 35.2947C167.348 35.2096 167.065 35.1703 166.861 35.1703ZM154.029 37.5655C154.029 38.9463 154.996 39.9606 156.468 39.9606C157.158 39.9606 157.619 39.8101 158.118 39.4174L157.638 38.6191C157.264 38.8874 156.869 39.0313 156.442 39.0313C155.646 39.0248 155.061 38.4489 155.061 37.572C155.061 36.6951 155.646 36.1258 156.442 36.1127C156.876 36.1127 157.264 36.2567 157.638 36.525L158.118 35.7266C157.619 35.3339 157.158 35.1834 156.468 35.1834C155.002 35.1703 154.029 36.1847 154.029 37.5655ZM163.357 37.5655V35.2881H162.365V35.8378C162.049 35.4256 161.569 35.1703 160.919 35.1703C159.637 35.1703 158.631 36.1716 158.631 37.5655C158.631 38.9593 159.637 39.9606 160.919 39.9606C161.569 39.9606 162.049 39.7054 162.365 39.2931V39.8428H163.357V37.5655ZM159.65 37.5655C159.65 36.7671 160.176 36.1061 161.037 36.1061C161.859 36.1061 162.417 36.7344 162.417 37.5655C162.417 38.3966 161.865 39.0248 161.037 39.0248C160.176 39.0248 159.65 38.3638 159.65 37.5655ZM147.633 35.1703C146.292 35.1703 145.352 36.1454 145.352 37.5655C145.352 39.0117 146.331 39.9606 147.699 39.9606C148.389 39.9606 149.02 39.7904 149.572 39.3193L149.086 38.5863C148.704 38.8939 148.211 39.064 147.758 39.064C147.114 39.064 146.535 38.7696 146.39 37.9516H149.789C149.796 37.8272 149.809 37.7029 149.809 37.572C149.802 36.1454 148.921 35.1703 147.633 35.1703ZM147.62 36.0603C148.264 36.0603 148.672 36.4595 148.777 37.1663H146.404C146.509 36.5053 146.91 36.0603 147.62 36.0603ZM172.6 37.5655V33.4558H171.608V35.8378C171.292 35.4256 170.812 35.1703 170.161 35.1703C168.879 35.1703 167.874 36.1716 167.874 37.5655C167.874 38.9593 168.879 39.9606 170.161 39.9606C170.812 39.9606 171.292 39.7054 171.608 39.2931V39.8428H172.6V37.5655ZM173.764 39.424C173.803 39.424 173.843 39.4305 173.876 39.4436C173.908 39.4567 173.941 39.4763 173.968 39.5025C173.994 39.5287 174.014 39.5614 174.033 39.5941C174.046 39.6268 174.06 39.6661 174.06 39.7054C174.06 39.7446 174.053 39.7839 174.033 39.8166C174.02 39.8493 173.994 39.8821 173.968 39.9082C173.941 39.9344 173.908 39.954 173.876 39.9737C173.843 39.9868 173.803 39.9998 173.764 39.9998C173.724 39.9998 173.685 39.9933 173.645 39.9737C173.606 39.9606 173.58 39.9344 173.553 39.9082C173.527 39.8821 173.507 39.8493 173.488 39.8166C173.475 39.7839 173.461 39.7446 173.461 39.7054C173.461 39.6661 173.468 39.6268 173.488 39.5941C173.501 39.5614 173.527 39.5287 173.553 39.5025C173.58 39.4763 173.613 39.4567 173.645 39.4436C173.678 39.4305 173.718 39.424 173.764 39.424ZM173.764 39.9344C173.797 39.9344 173.823 39.9279 173.849 39.9148C173.876 39.9017 173.902 39.8886 173.922 39.869C173.941 39.8493 173.961 39.8232 173.968 39.797C173.981 39.7708 173.987 39.7381 173.987 39.7119C173.987 39.6792 173.981 39.653 173.968 39.6268C173.954 39.6007 173.941 39.5745 173.922 39.5548C173.902 39.5352 173.876 39.5156 173.849 39.509C173.823 39.496 173.79 39.4894 173.764 39.4894C173.731 39.4894 173.705 39.496 173.672 39.509C173.645 39.5221 173.619 39.5352 173.599 39.5548C173.58 39.5745 173.56 39.6007 173.553 39.6268C173.54 39.653 173.534 39.6857 173.534 39.7119C173.534 39.7446 173.54 39.7708 173.553 39.797C173.567 39.8232 173.58 39.8493 173.599 39.869C173.619 39.8886 173.645 39.9082 173.672 39.9148C173.698 39.9279 173.731 39.9344 173.764 39.9344ZM173.777 39.5745C173.81 39.5745 173.836 39.581 173.856 39.6007C173.876 39.6137 173.882 39.6399 173.882 39.6661C173.882 39.6857 173.876 39.7054 173.862 39.7185C173.849 39.7315 173.823 39.7446 173.797 39.7446L173.882 39.8428H173.81L173.731 39.7446H173.705V39.8428H173.645V39.5745H173.777ZM173.711 39.6268V39.6988H173.777C173.79 39.6988 173.803 39.6988 173.816 39.6923C173.823 39.6857 173.83 39.6792 173.83 39.6661C173.83 39.653 173.823 39.6465 173.816 39.6399C173.81 39.6334 173.797 39.6334 173.777 39.6334H173.711V39.6268ZM168.893 37.5655C168.893 36.7671 169.418 36.1061 170.28 36.1061C171.101 36.1061 171.66 36.7344 171.66 37.5655C171.66 38.3966 171.108 39.0248 170.28 39.0248C169.418 39.0248 168.893 38.3638 168.893 37.5655ZM135.268 37.5655V35.2881H134.275V35.8378C133.959 35.4256 133.48 35.1703 132.829 35.1703C131.547 35.1703 130.541 36.1716 130.541 37.5655C130.541 38.9593 131.547 39.9606 132.829 39.9606C133.48 39.9606 133.959 39.7054 134.275 39.2931V39.8428H135.268V37.5655ZM131.56 37.5655C131.56 36.7671 132.086 36.1061 132.947 36.1061C133.769 36.1061 134.328 36.7344 134.328 37.5655C134.328 38.3966 133.775 39.0248 132.947 39.0248C132.086 39.0248 131.56 38.3638 131.56 37.5655Z" fill="white"/>
</svg>
