<?xml version="1.0" encoding="UTF-8" standalone="no"?>
<!DOCTYPE svg PUBLIC "-//W3C//DTD SVG 1.1//EN" "http://www.w3.org/Graphics/SVG/1.1/DTD/svg11.dtd">
<svg xmlns:xlink="http://www.w3.org/1999/xlink" xmlns:serif="http://www.serif.com/" width="100%" height="100%" viewBox="0 0 130 49" version="1.1" xmlns="http://www.w3.org/2000/svg" xml:space="preserve" style="fill-rule:evenodd;clip-rule:evenodd;stroke-linejoin:round;stroke-miterlimit:2;">
    <rect id="Artboard1" x="0" y="0" width="130" height="48.148" style="fill:none;"/>
    <clipPath id="_clip1">
        <rect id="Artboard11" serif:id="Artboard1" x="0" y="0" width="130" height="48.148"/>
    </clipPath>
    <g clip-path="url(#_clip1)">
        <g transform="matrix(1.60493,0,0,1.60493,-38.5184,-16.0494)">
            <path d="M72.381,30.402C72.519,30.521 72.629,30.671 72.701,30.838C72.773,31.006 72.806,31.188 72.797,31.371C72.797,32.417 72.191,32.94 70.979,32.94L60.565,32.94C60.181,32.963 59.802,32.833 59.514,32.578C59.225,32.323 59.05,31.964 59.026,31.58C59.023,31.531 59.023,31.482 59.025,31.432C59.025,31.167 59.08,30.904 59.186,30.661C59.292,30.418 59.447,30.198 59.641,30.017L68.237,20.787L61.582,20.787C61.147,20.818 60.715,20.692 60.365,20.433C60.225,20.308 60.114,20.154 60.042,19.981C59.97,19.807 59.938,19.62 59.949,19.433C59.949,18.407 60.555,17.894 61.767,17.895L71.718,17.895C71.927,17.885 72.135,17.919 72.329,17.996C72.523,18.073 72.698,18.191 72.843,18.341C73.116,18.626 73.265,19.008 73.259,19.402C73.247,19.945 73.026,20.463 72.643,20.848L64.077,30.048L71.164,30.048C71.599,30.017 72.03,30.143 72.381,30.402" style="fill:white;"/>
        </g>
        <g transform="matrix(1.60493,0,0,1.60493,-38.5184,-16.0494)">
            <path d="M87.817,25.756C87.698,25.873 87.556,25.965 87.399,26.026C87.243,26.087 87.076,26.115 86.908,26.109L77.758,26.109C77.734,27.245 78.147,28.346 78.913,29.186C79.319,29.552 79.793,29.833 80.309,30.012C80.825,30.192 81.372,30.267 81.917,30.233C82.578,30.24 83.237,30.152 83.874,29.971C84.485,29.785 85.07,29.521 85.614,29.186C85.849,29.052 86.114,28.978 86.385,28.971C86.542,28.964 86.698,28.995 86.84,29.062C86.983,29.129 87.106,29.23 87.201,29.356C87.401,29.627 87.504,29.957 87.494,30.294C87.495,30.584 87.426,30.87 87.292,31.128C87.158,31.385 86.962,31.606 86.723,31.771C86.054,32.235 85.308,32.579 84.52,32.786C83.594,33.054 82.635,33.189 81.671,33.186C80.271,33.218 78.885,32.907 77.634,32.279C76.513,31.702 75.586,30.808 74.969,29.709C74.322,28.521 73.998,27.184 74.029,25.832C74.004,24.347 74.331,22.876 74.985,21.541C75.581,20.323 76.51,19.299 77.665,18.587C78.853,17.869 80.22,17.501 81.609,17.525C82.505,17.47 83.403,17.609 84.241,17.933C85.079,18.257 85.836,18.758 86.462,19.402C87.688,20.907 88.299,22.819 88.171,24.756C88.183,24.937 88.157,25.12 88.096,25.292C88.036,25.463 87.941,25.621 87.817,25.755L87.817,25.756ZM77.881,24.048L84.905,24.048C84.997,23.033 84.712,22.02 84.104,21.202C83.812,20.875 83.45,20.618 83.044,20.45C82.639,20.282 82.201,20.208 81.763,20.233C79.585,20.233 78.291,21.504 77.881,24.048" style="fill:white;"/>
        </g>
        <g transform="matrix(1.60493,0,0,1.60493,-38.5184,-16.0494)">
            <path d="M103.675,18.895C104.623,20.021 105.093,21.473 104.985,22.94C104.985,23.33 104.974,23.628 104.954,23.833L104.338,31.278C104.331,31.534 104.273,31.785 104.167,32.017C104.061,32.25 103.91,32.459 103.722,32.632C103.328,32.969 102.822,33.145 102.304,33.125C102.052,33.14 101.799,33.105 101.561,33.02C101.322,32.935 101.104,32.803 100.918,32.632C100.749,32.453 100.623,32.238 100.549,32.004C100.474,31.77 100.453,31.522 100.486,31.278L101.103,23.987C101.267,21.709 100.363,20.571 98.391,20.571C97.903,20.544 97.414,20.62 96.957,20.795C96.501,20.97 96.086,21.24 95.742,21.587C95.059,22.376 94.667,23.375 94.632,24.417L94.047,31.278C94.04,31.534 93.982,31.785 93.876,32.017C93.771,32.25 93.619,32.459 93.431,32.632C93.037,32.969 92.531,33.145 92.014,33.125C91.763,33.141 91.513,33.106 91.277,33.021C91.041,32.937 90.825,32.804 90.643,32.632C90.478,32.45 90.353,32.235 90.276,32.002C90.199,31.769 90.172,31.523 90.196,31.278L91.182,19.34C91.183,19.095 91.239,18.854 91.346,18.633C91.452,18.412 91.607,18.218 91.798,18.064C92.209,17.739 92.722,17.57 93.246,17.587C93.482,17.573 93.718,17.606 93.94,17.685C94.163,17.765 94.367,17.888 94.54,18.048C94.695,18.209 94.809,18.405 94.874,18.619C94.938,18.833 94.95,19.059 94.91,19.279L94.879,19.863C95.402,19.117 96.115,18.523 96.943,18.141C97.85,17.721 98.84,17.51 99.84,17.525C100.539,17.476 101.241,17.572 101.902,17.808C102.562,18.043 103.166,18.413 103.675,18.895" style="fill:white;"/>
        </g>
        <g transform="matrix(1.60493,0,0,1.60493,-38.5184,-16.0494)">
            <path d="M52.611,18.703C52.031,17.811 51.145,17.162 50.118,16.88C49.092,16.597 47.998,16.699 47.042,17.168C46.24,17.575 45.586,18.223 45.173,19.022C44.76,19.821 44.609,20.729 44.741,21.618C44.873,22.507 45.283,23.332 45.911,23.976C46.538,24.62 47.353,25.05 48.24,25.206C48.163,27.615 47.144,29.899 45.401,31.566C43.658,33.234 41.33,34.152 38.916,34.125C36.503,34.098 34.196,33.127 32.491,31.421C30.786,29.714 29.819,27.409 29.797,24.998C29.793,23.14 30.36,21.325 31.422,19.798C32.484,18.272 33.989,17.108 35.735,16.464C36.067,16.344 36.344,16.107 36.514,15.798C36.685,15.489 36.736,15.129 36.66,14.784L36.65,14.739C36.608,14.553 36.603,14.362 36.636,14.174C36.668,13.987 36.737,13.808 36.839,13.648C36.941,13.487 37.073,13.348 37.229,13.239C37.384,13.129 37.56,13.052 37.745,13.01C37.809,12.996 37.873,12.986 37.938,12.98C38.297,12.947 38.658,12.931 39.021,12.931C39.47,12.931 39.918,12.955 40.364,13.004C40.556,13.025 40.75,13.008 40.935,12.954C41.12,12.9 41.293,12.81 41.443,12.69C41.594,12.569 41.719,12.42 41.811,12.251C41.904,12.083 41.963,11.897 41.984,11.706C41.986,11.679 41.989,11.653 41.99,11.626C42.001,11.242 41.863,10.868 41.606,10.581C41.349,10.294 40.992,10.116 40.609,10.084C37.587,9.763 34.539,10.365 31.867,11.81C29.195,13.255 27.025,15.476 25.643,18.178C24.261,20.881 23.733,23.938 24.127,26.947C24.521,29.955 25.82,32.774 27.852,35.03C29.884,37.286 32.553,38.874 35.507,39.584C38.462,40.294 41.562,40.092 44.399,39.005C47.236,37.919 49.677,35.999 51.398,33.498C53.12,30.998 54.041,28.035 54.041,25C54.041,23.534 53.746,20.373 52.611,18.703" style="fill:white;"/>
        </g>
        <g transform="matrix(1.60493,0,0,1.60493,-38.5184,-16.0494)">
            <path d="M44.687,11.14C44.994,11.14 45.295,11.231 45.551,11.402C45.807,11.572 46.007,11.815 46.124,12.099C46.242,12.383 46.273,12.695 46.213,12.997C46.153,13.298 46.005,13.575 45.787,13.792C45.569,14.01 45.292,14.158 44.99,14.217C44.689,14.278 44.376,14.247 44.091,14.129C43.807,14.012 43.564,13.812 43.393,13.557C43.222,13.301 43.131,13.001 43.131,12.694C43.131,12.281 43.295,11.886 43.587,11.595C43.878,11.304 44.274,11.14 44.687,11.14Z" style="fill:white;"/>
        </g>
    </g>
</svg>
